<svg xmlns="http://www.w3.org/2000/svg" viewBox="0 0 60 60" width="60" height="60">
  <path d="M57.7657 30.039C57.7657 45.3532 45.3511 57.7677 30.0369 57.7677C14.7228 57.7677 2.30821 45.3532 2.30821 30.039C2.30821 14.7249 14.7228 2.3103 30.0369 2.3103C45.3511 2.3103 57.7657 14.7249 57.7657 30.039Z" fill="#81332C" stroke="#7A7A7A" stroke-width="3"/>
  <path d="M29.601 9.88208L23.7713 20.0728L12.8718 20.6718L18.1682 29.6616L13.1703 40.2257L23.9251 40.0093L30.4431 49.9487L36.0103 40.1446L47.0636 39.2482L41.361 30.3949L46.7385 20.2646L35.8205 20.319L29.601 9.88208Z" fill="#979A9D"/>
  <path d="M30.4954 46.8605L35.2862 38.2974L44.4985 37.9046L39.638 29.9662L44.2205 21.5877L35.3754 21.76L29.6379 12.7395L25.1128 21.1682L14.9097 21.6123L20.4697 29.8L16.0041 38.2923L25.4677 38.2339L30.4954 46.8605Z" fill="#4A4B4C"/>
  <path d="M30.3354 51.7796C31.2094 51.7796 31.918 51.0711 31.918 50.1971C31.918 49.323 31.2094 48.6145 30.3354 48.6145C29.4614 48.6145 28.7528 49.323 28.7528 50.1971C28.7528 51.0711 29.4614 51.7796 30.3354 51.7796Z" fill="#979A9D"/>
  <path d="M13.0308 41.8021C13.9048 41.8021 14.6133 41.0936 14.6133 40.2195C14.6133 39.3455 13.9048 38.637 13.0308 38.637C12.1567 38.637 11.4482 39.3455 11.4482 40.2195C11.4482 41.0936 12.1567 41.8021 13.0308 41.8021Z" fill="#979A9D"/>
  <path d="M12.6195 22.4339C13.4935 22.4339 14.2021 21.7254 14.2021 20.8514C14.2021 19.9773 13.4935 19.2688 12.6195 19.2688C11.7455 19.2688 11.0369 19.9773 11.0369 20.8514C11.0369 21.7254 11.7455 22.4339 12.6195 22.4339Z" fill="#979A9D"/>
  <path d="M29.52 11.4647C30.394 11.4647 31.1026 10.7562 31.1026 9.88213C31.1026 9.0081 30.394 8.29956 29.52 8.29956C28.646 8.29956 27.9374 9.0081 27.9374 9.88213C27.9374 10.7562 28.646 11.4647 29.52 11.4647Z" fill="#979A9D"/>
  <path d="M46.4585 21.836C47.3325 21.836 48.041 21.1275 48.041 20.2535C48.041 19.3794 47.3325 18.6709 46.4585 18.6709C45.5844 18.6709 44.8759 19.3794 44.8759 20.2535C44.8759 21.1275 45.5844 21.836 46.4585 21.836Z" fill="#979A9D"/>
  <path d="M47.0636 41.0789C47.9376 41.0789 48.6462 40.3704 48.6462 39.4964C48.6462 38.6224 47.9376 37.9138 47.0636 37.9138C46.1896 37.9138 45.481 38.6224 45.481 39.4964C45.481 40.3704 46.1896 41.0789 47.0636 41.0789Z" fill="#979A9D"/>
  <path d="M30.0472 40.9149C36.1597 40.9149 41.1149 35.9598 41.1149 29.8472C41.1149 23.7347 36.1597 18.7795 30.0472 18.7795C23.9347 18.7795 18.9795 23.7347 18.9795 29.8472C18.9795 35.9598 23.9347 40.9149 30.0472 40.9149Z" fill="#979A9D"/>
  <path d="M29.4349 27.9261C29.1487 27.8902 28.9077 27.6902 28.8831 27.6697C28.0687 26.9908 28.1026 27.0533 28.0103 26.9385C27.8133 26.6933 27.6215 26.4543 27.5477 26.1036C27.3846 25.32 27.959 24.6543 28.0482 24.5508C28.5549 23.9631 29.2256 23.8461 29.4728 23.8061C30.2523 23.682 30.8574 23.96 31.0779 24.0759C31.4226 24.2574 31.6492 24.522 32.1046 25.0513C32.2646 25.2369 32.4359 25.4585 32.4256 25.7446C32.4236 25.8143 32.4318 25.8882 32.3867 25.9497C32.3364 26.0205 32.2441 26.0585 32.1682 26.0523C32.0154 26.04 31.9272 25.8461 31.8472 25.719C31.6092 25.3385 31.2113 25.1743 30.8841 25.039C30.6738 24.9518 30.322 24.8061 29.8697 24.8718C29.7138 24.8943 29.3826 24.9477 29.0872 25.2185C28.9867 25.3108 28.7108 25.5908 28.6636 26.04C28.6564 26.1087 28.6154 26.5497 28.882 26.9005C29.1549 27.2595 29.4338 27.4267 29.4338 27.4267C29.4985 27.4656 29.6277 27.5364 29.6646 27.6708C29.6667 27.679 29.7026 27.8164 29.6256 27.8892C29.5805 27.9323 29.5097 27.9354 29.4349 27.9261Z" fill="#808285"/>
  <path d="M33.0164 26.809C33.0113 26.8818 32.9774 26.8962 32.9774 26.9506C32.9785 27.0931 33.2123 27.2829 33.44 27.2459C33.5908 27.2213 33.681 27.1054 33.7097 27.0665L34.9426 24.3577C34.9569 24.3229 34.9826 24.2654 35.0205 24.1977C35.1231 24.0111 35.1959 23.9608 35.2113 23.8408C35.2144 23.8203 35.2236 23.7342 35.1805 23.6439C35.1015 23.4767 34.8964 23.4121 34.7682 23.4039C34.7364 23.4018 34.7344 23.4049 34.6205 23.4039C34.4985 23.4029 34.4113 23.3977 34.4051 23.3977C34.0913 23.3854 32.6349 26.2213 32.9118 26.5567C32.9272 26.5772 33.0246 26.6798 33.0164 26.809Z" fill="#808285"/>
  <path d="M26.4943 29.044C26.3959 29.0789 26.3569 29.2092 26.3467 29.2451C26.3138 29.3548 26.3343 29.4676 26.4205 29.6471C26.5959 30.0133 26.8328 30.2286 26.8328 30.2286C27.039 30.4153 27.2523 30.5312 27.721 30.7148C28.2902 30.9384 28.7364 31.0666 28.8 31.0851C29.5641 31.3035 29.6595 31.2686 30.5026 31.5076C30.7928 31.5897 31.0277 31.6748 31.4964 31.8461C31.9497 32.0112 32.0646 32.0676 32.1836 32.1845C32.5395 32.5322 32.5856 32.5969 32.5856 32.5969C32.6164 32.641 32.6718 32.723 32.7764 32.7661C32.8041 32.7774 32.9179 32.8245 33.0195 32.7661C33.1087 32.7148 33.1313 32.6143 33.1354 32.5969C33.1702 32.4471 33.0728 32.3066 32.9764 32.1743C32.6738 31.7538 32.5251 31.5415 32.5005 31.5189C32.2626 31.2974 32.039 31.204 31.6656 31.0533C31.3159 30.9117 31.2431 30.9189 30.281 30.641C29.7374 30.484 29.7169 30.4686 29.4031 30.3876C29.0102 30.2851 28.9108 30.2738 28.5785 30.1763C28.2185 30.0697 28.0277 30.0133 27.7856 29.8912C27.7077 29.8522 27.4667 29.7271 27.1826 29.5107C26.7949 29.2143 26.6451 28.9907 26.4943 29.044Z" fill="#808285"/>
  <path d="M27.7385 32.4676C27.7631 32.4789 27.8226 32.5035 27.8656 32.563C27.919 32.6368 27.9179 32.7209 27.919 32.7538C27.921 32.9209 28.0041 33.0779 28.0461 33.2399C28.1426 33.6173 28.4297 34.0184 28.4482 34.043C28.8082 34.5394 29.402 34.9691 29.5897 35.0368C29.6061 35.043 29.6687 35.0635 29.7056 35.1209C29.7415 35.1773 29.7487 35.2584 29.7159 35.322C29.6738 35.404 29.5795 35.4266 29.5251 35.4379C29.2585 35.4973 28.9774 35.3517 28.9015 35.3107C28.2328 34.9538 27.8985 34.7753 27.76 34.6235C27.3877 34.2163 27.282 33.8009 27.1785 33.3968C27.0851 33.0297 27.0154 32.7425 27.1785 32.5722C27.3138 32.4317 27.5826 32.402 27.7385 32.4676Z" fill="#808285"/>
  <path d="M25.0102 36.1875C25.0708 36.0213 25.2718 35.9475 25.4749 35.8972C26.1272 35.7331 26.7159 35.8162 26.8697 35.8388C27.2267 35.8921 27.4779 35.9485 28.3815 36.168C29.4277 36.4234 29.4944 36.4459 29.7385 36.4777C30.4923 36.5762 31.0626 36.5126 31.1918 36.4972C31.5877 36.45 32.1364 36.3782 32.761 36.0511C33.2872 35.7752 33.6297 35.4429 33.7877 35.2757C33.8718 35.1865 34.1528 34.8808 34.4082 34.4039C34.8995 33.4859 34.9241 32.6285 34.9313 32.2531C34.9446 31.5444 34.9508 31.1895 34.7374 30.8193C34.3518 30.1495 34.159 29.8141 34.0985 29.7536C34.0656 29.7208 33.9569 29.6172 33.9826 29.5208C34.0061 29.4285 34.1292 29.3495 34.2349 29.3659C34.3015 29.3762 34.3436 29.4234 34.3774 29.4582C34.5856 29.6788 34.521 29.5465 34.7385 29.7916C34.8687 29.9382 35.0379 30.128 35.2031 30.41C35.4554 30.8377 35.5477 31.2182 35.602 31.449C35.6482 31.6439 35.7979 32.3382 35.6626 33.2377C35.5518 33.97 35.3056 34.4859 35.2359 34.6275C34.9897 35.1239 34.7128 35.45 34.5631 35.6234C34.1097 36.1495 33.6646 36.45 33.5241 36.5424C33.3446 36.6593 32.9487 36.9003 32.3918 37.0839C31.8605 37.2593 31.4349 37.2983 31.1282 37.3249C30.9067 37.3444 30.4492 37.3721 29.8697 37.3085C29.4482 37.2624 29.1436 37.1865 28.7979 37.1003C28.2174 36.9567 28.0779 36.8747 27.3702 36.7065C27.2892 36.687 26.9867 36.6172 26.5877 36.5803C26.2595 36.5506 26.0913 36.5372 25.9261 36.6018C25.7897 36.6552 25.6523 36.7054 25.5159 36.7608C25.4061 36.8049 25.3467 36.8306 25.2749 36.81C25.1702 36.7803 25.1169 36.6716 25.0779 36.5916C25.04 36.5188 24.9538 36.3424 25.0102 36.1875Z" fill="#808285"/>
  <path d="M34.2667 23.0676C34.0461 23.0891 33.9364 23.203 33.7744 23.282C33.5774 23.3773 33.399 23.3732 33.1754 23.3671C32.8544 23.3589 32.6256 23.2573 32.4697 23.1958C32.1046 23.0512 31.6913 22.9856 30.8656 22.8532C30.3036 22.764 30.0082 22.7168 29.5826 22.725C29.2328 22.7322 28.7169 22.7466 28.1067 22.9814C27.5477 23.1968 27.1805 23.4922 26.9949 23.644C26.7815 23.8194 26.4585 24.0881 26.1826 24.5209C25.7661 25.1743 25.7077 25.8071 25.6697 26.2317C25.6328 26.6307 25.5744 27.362 25.9179 28.1938C26.001 28.3948 26.1764 28.8102 26.5467 29.2081C27.0143 29.7107 27.5405 29.8922 28.5754 30.2348C30.2082 30.7763 31.322 31.044 31.322 31.044C31.4092 31.0645 31.64 31.1189 31.9128 31.2625C32.0872 31.3538 32.4256 31.5353 32.6831 31.9045C32.9251 32.2502 32.9723 32.5825 33.0164 32.8932C33.0687 33.2594 33.1302 33.6902 32.9138 34.1517C32.7436 34.5138 32.4831 34.7209 32.3231 34.845C31.9415 35.1414 31.5682 35.2368 31.2831 35.3076C30.9949 35.3784 30.3056 35.5384 29.4605 35.3076C29.1508 35.2235 28.4226 35.0245 27.8944 34.3835C27.5949 34.0204 27.0605 33.1517 27.0985 32.4963C27.1026 32.4235 27.1241 32.1886 26.9826 32.0594C26.8892 31.9743 26.7241 31.9343 26.5979 31.9948C26.5405 32.0225 26.4964 32.0686 26.4441 32.162C26.3036 32.4091 26.2902 32.6543 26.2902 32.6625C26.2687 33.0676 25.96 33.6307 25.5077 34.4594C25.3097 34.8225 25.1928 35.242 24.9169 35.5507C24.8995 35.5702 24.8308 35.645 24.8144 35.7558C24.7918 35.9086 24.882 36.0338 24.9046 36.0635C24.9333 36.1025 25.041 36.2522 25.1744 36.243C25.2533 36.2379 25.2779 36.1804 25.3928 36.1014C25.4872 36.0368 25.5631 36.0112 25.7138 35.9599C25.9292 35.8871 26.1374 35.8625 26.3302 35.8573C26.762 35.845 27.1087 35.9322 27.2677 35.9732C28.0061 36.163 28.4133 36.2891 28.7179 36.3712C29.1559 36.4891 29.7528 36.6512 30.5149 36.6789C30.9241 36.6943 31.4656 36.7097 32.1323 36.5117C32.7344 36.3332 33.1467 36.0676 33.2872 35.9722C33.4082 35.8902 33.8359 35.5917 34.2502 35.0604C34.6041 34.6061 34.7774 34.202 34.8154 34.1107C35.0513 33.5455 35.0913 33.0707 35.1108 32.8143C35.1405 32.4297 35.1836 31.7753 34.8923 31.004C34.6267 30.2994 34.2082 29.8307 33.9426 29.5794C33.4185 29.084 32.8954 28.8738 32.4154 28.6809C32.2133 28.5999 31.5805 28.4245 30.3231 28.0779C29.9313 27.9702 29.7415 27.9179 29.4626 27.8081C28.8913 27.5825 28.4882 27.4184 28.1785 27.0122C27.8759 26.6143 27.8277 26.2009 27.8195 26.1138C27.7549 25.4686 28.079 24.9999 28.1661 24.8809C28.5415 24.3722 29.0687 24.2286 29.36 24.1497C29.5836 24.0881 30.0123 23.9773 30.5282 24.1107C31.1856 24.2809 31.5631 24.7414 31.7087 24.9199C31.9313 25.1907 32.3538 25.7066 32.3887 26.2809C32.3949 26.3753 32.402 26.6768 32.6072 26.8717C32.6502 26.9127 32.7108 26.9702 32.7867 26.9743C33 26.9866 33.1692 26.5702 33.3641 26.1527C33.759 25.3055 34.0246 24.7373 34.3528 24.202C34.3528 24.202 34.6359 23.7394 34.5836 23.3548C34.5754 23.2932 34.5559 23.162 34.4554 23.0984C34.4031 23.0676 34.3446 23.0604 34.2667 23.0676Z" fill="#81332C"/>
</svg>
