<svg xmlns="http://www.w3.org/2000/svg" viewBox="0 0 60 60" width="60" height="60">
  <path d="M58.5 30C58.5 45.7401 45.7401 58.5 30 58.5C14.2599 58.5 1.5 45.7401 1.5 30C1.5 14.2599 14.2599 1.5 30 1.5C45.7401 1.5 58.5 14.2599 58.5 30Z" fill="#020202" stroke="#5F5F5E" stroke-width="3"/>
  <path d="M49.2708 17.0728C48.9413 15.8822 48.7771 15.2874 48.6897 14.7684C48.6792 14.7042 48.5434 13.8904 48.1486 13.7062C48.1192 13.6925 48.0465 13.6631 47.9286 13.6062C47.717 13.5052 47.5528 13.4094 47.4475 13.3462L31.7812 17.5328C31.5948 17.5423 31.3275 17.5823 31.0601 17.7328C30.7748 17.8928 30.6664 18.0792 30.499 18.2339C30.0863 18.616 29.5242 18.6108 29.1568 18.635C28.5241 18.676 27.4746 18.8687 25.5913 19.4561L24.7302 19.3161L17.157 21.3994C17.1265 21.352 17.0791 21.2815 17.017 21.1994C16.8338 20.9551 16.7422 20.833 16.5959 20.7583C16.3959 20.6562 16.1201 20.652 16.0548 20.7583C16.0095 20.832 16.099 20.9046 16.0548 21.0183C16.0074 21.1383 15.8822 21.1257 15.7748 21.2383C15.6253 21.3941 15.7485 21.5394 15.6348 21.6994C15.5011 21.8878 15.1695 21.9089 14.6937 21.9394C14.5347 21.95 14.4305 21.9468 14.3126 22.0194C14.1642 22.111 14.101 22.2573 14.0526 22.3805C13.7778 23.0637 13.861 23.1953 13.6715 23.4427C13.4452 23.7385 13.1146 23.8269 13.0504 23.8438C12.9125 23.8785 12.8114 23.8732 12.6093 23.8638C12.1945 23.8438 12.1082 23.7627 11.6882 23.7238C11.3924 23.6964 11.2176 23.6817 11.0071 23.7638C10.906 23.8027 10.6829 23.8932 10.566 24.1248C10.4986 24.2585 10.4292 24.5133 10.546 24.6459C10.6618 24.7765 10.8787 24.6986 11.2071 24.6859C11.6871 24.667 12.0524 24.8007 12.2893 24.8859C12.4535 24.946 12.9946 25.1512 13.4104 25.6934C13.5494 25.8755 14.0178 26.484 13.8841 27.2451C13.7904 27.7798 13.4462 28.1188 13.1514 28.4083C12.8999 28.6557 12.503 29.0462 11.9019 29.1841C11.6398 29.2441 11.4471 29.2315 11.2124 29.3999C11.145 29.4484 10.8481 29.661 10.825 30.0031C10.806 30.28 10.9723 30.5474 11.1692 30.6927C11.664 31.0569 12.1661 30.5137 13.1946 30.6495C13.9157 30.7443 14.4252 31.1116 14.6168 31.2527C14.7874 31.378 15.18 31.6748 15.479 32.2012C15.8148 32.7939 15.8443 33.3476 15.8664 33.8824C15.8927 34.5119 15.8169 34.9088 15.6937 35.692C15.5643 36.5226 15.46 37.3573 15.3495 38.1911C15.079 40.2228 15.1021 40.227 14.9621 41.1218C14.68 42.9272 14.5379 43.8304 14.4021 44.3536C14.3494 44.5568 14.2252 45.0168 14.1863 45.6463C14.1547 46.158 14.1926 46.579 14.2294 46.8528L15.0337 46.8222C15.0526 46.8812 15.0821 46.9717 15.1137 47.0822C15.2084 47.4075 15.2053 47.4728 15.2737 47.5833C15.2842 47.5991 15.4632 47.8802 15.6348 47.8433C15.7558 47.8181 15.8137 47.6465 15.8548 47.5233C15.9011 47.3865 15.8853 47.3359 15.9348 47.0222C15.9727 46.7791 15.9938 46.7338 16.0348 46.7022C16.1338 46.6243 16.2811 46.678 16.3959 46.7022C16.7264 46.7717 16.9443 46.6285 17.297 46.5222C17.6833 46.4053 17.8002 46.4611 18.6192 46.4022C19.2045 46.3601 19.1582 46.3306 20.3625 46.1822C21.1299 46.0874 21.6615 46.0222 22.3858 45.9622C22.9879 45.9116 23.5848 45.7264 24.1891 45.7621C24.1912 45.7621 24.5754 45.7853 24.9302 45.6021C25.0039 45.5642 25.1197 45.4948 25.1902 45.3621C25.2039 45.3379 25.3018 45.1537 25.2302 45.0621C25.1723 44.9884 25.0597 45.0431 24.8091 45.0021C24.7217 44.9874 24.5954 44.9663 24.5291 44.9221C24.2891 44.76 24.5101 44.0641 24.6091 43.6199C24.6365 43.4978 24.6312 43.4999 24.6691 41.6566C24.7028 40.0491 24.7186 39.2459 24.7291 38.9922C24.8091 37.0057 24.9039 37.27 24.8691 36.4278C24.8428 35.772 24.7712 35.2656 24.9291 34.5045C24.9681 34.3182 25.066 33.895 25.3102 33.4023C25.506 33.0055 25.7113 32.6023 26.1513 32.3202C26.2039 32.2865 26.305 32.2254 26.7124 32.0801C27.3335 31.858 27.7704 31.7591 28.1546 31.6591C28.862 31.4748 28.7189 31.4601 29.6968 31.178C30.7127 30.8853 30.7937 30.9222 31.279 30.7169C32.1012 30.3705 32.436 30.0253 32.5212 29.9358C32.8655 29.5705 33.0181 29.2063 33.0623 29.0947C33.1286 28.9262 33.2486 28.5715 33.2423 28.1135C33.2402 27.9777 33.2139 27.8167 33.1623 27.4924C33.0539 26.8208 33.0023 26.7556 32.9823 26.4103C32.9655 26.1292 32.9539 25.9071 33.0423 25.6292C33.1318 25.346 33.2792 25.1512 33.3423 25.0681C33.3866 25.0112 33.4855 24.887 33.8034 24.627C34.0098 24.4575 34.2182 24.287 34.4245 24.1659C34.8477 23.9185 35.0898 23.9859 35.7667 23.8459C36.2289 23.7501 36.1046 23.7206 37.0889 23.4248C37.4542 23.3153 37.9479 23.1669 38.5911 23.0237C38.6859 23.0027 39.148 22.91 40.0733 22.7237C40.3849 22.6605 40.6818 22.5363 40.9945 22.4837C41.0913 22.4668 41.3082 22.4331 41.5155 22.2837C41.5966 22.2247 41.6871 22.1615 41.7356 22.0436C41.785 21.9215 41.7535 21.8373 41.8156 21.7636C41.8998 21.6636 42.0714 21.6805 42.1156 21.6836C42.7219 21.7268 43.2904 21.3762 43.8789 21.2225C45.4653 20.8099 45.2453 20.8225 45.9622 20.6614C47.3981 20.3383 47.4844 20.3204 47.4844 20.3204C47.5465 20.3077 47.9265 20.1846 48.6866 19.9393C48.935 19.8593 49.1487 19.7866 49.2277 19.5982C49.3035 19.4182 49.2066 19.2434 49.3277 19.1171C49.4193 19.0213 49.5277 19.0676 49.6077 19.0171C49.8614 18.8571 49.5182 17.9676 49.2708 17.0728ZM32.4044 29.0189C32.1486 29.5326 31.7928 29.8242 31.6938 29.901C31.4885 30.0621 31.2096 30.1758 30.6611 30.3958C30.1316 30.6085 29.8379 30.7264 29.4126 30.8264C28.781 30.9737 28.2757 30.9832 28.2715 30.9558C28.2662 30.919 29.1189 30.6695 29.3905 30.5895C29.5652 30.5379 29.7495 30.4863 29.7568 30.3958C29.7631 30.3126 29.6158 30.2505 29.4558 30.1589C29.4558 30.1589 29.0915 29.9505 28.7452 29.5779C28.4641 29.2757 28.3683 28.9389 28.2936 28.6736C28.1441 28.1451 28.1925 27.7125 28.2072 27.5977C28.2462 27.3009 28.322 26.725 28.7673 26.3282C28.9673 26.1502 29.1873 26.0734 29.6284 25.9197C29.8968 25.826 30.2042 25.7218 30.619 25.705C30.9032 25.6934 31.1622 25.6828 31.458 25.8123C31.8075 25.966 31.9991 26.2229 32.1254 26.3934C32.3833 26.7408 32.4696 27.0745 32.556 27.4051C32.6223 27.6598 32.6665 27.8314 32.6633 28.0725C32.657 28.503 32.5033 28.8189 32.4044 29.0189Z" fill="#808285"/>
  <path d="M17.8991 26.7955C18.1402 26.6429 18.4623 26.4618 18.8603 26.2965C19.0466 26.2197 19.5382 26.026 20.213 25.9049C20.3498 25.8807 20.7941 25.8049 21.3878 25.7986C22.4805 25.786 22.9016 26.0176 23.0616 26.1186C23.2237 26.2218 23.2995 26.306 23.3469 26.3681C23.4711 26.5334 23.4848 26.705 23.489 27.4008C23.489 27.4661 23.489 27.4345 23.489 28.1482C23.489 28.5493 23.489 28.7504 23.489 28.7535C23.4922 28.9557 23.4859 29.1567 23.489 29.3588C23.4922 29.5536 23.4964 29.6231 23.4532 29.7147C23.3806 29.8694 23.2795 29.8557 23.1679 29.9999C23.0848 30.1073 23.0637 30.2747 23.0258 30.6052C22.9932 30.8842 22.9774 31.0232 22.99 31.139C23.0058 31.2748 23.0542 31.5127 23.2395 31.7801L22.7405 45.7021L16.5812 46.5211C16.4706 46.3832 16.3411 46.239 16.1896 46.0937C15.8148 45.7368 15.4327 45.501 15.1211 45.3463" fill="#81332C"/>
  <path d="M31.0811 17.6748C30.8706 17.9633 30.6243 18.0538 30.4958 18.1212C30.3853 18.1802 30.2758 18.2359 30.1747 18.2644L25.7155 19.4444C25.6344 19.3802 25.5628 19.355 25.5144 19.3434C25.3976 19.3171 25.3639 19.3581 25.1544 19.3581C25.0281 19.3581 24.967 19.3434 24.9533 19.3729C24.9386 19.4044 24.9881 19.4645 25.0397 19.5023C25.1681 19.5971 25.3155 19.4697 25.5144 19.5171C25.6155 19.5413 25.7018 19.6287 25.8744 19.8045C26.0966 20.0308 26.0787 20.0824 26.205 20.1782C26.4103 20.335 26.6482 20.3445 26.7945 20.3508C27.0598 20.3624 27.2019 20.295 27.5567 20.1929C28.0767 20.0424 28.0146 20.1161 28.5641 19.9624C29.201 19.7845 29.1494 19.7245 29.5715 19.6455C29.8547 19.5929 29.9989 19.5981 30.2474 19.4876C30.5221 19.3655 30.6853 19.2076 30.7369 19.1571C30.8211 19.0728 30.9664 18.9234 31.0538 18.6823C31.1043 18.5433 31.1117 18.436 31.1253 18.2223C31.1453 17.898 31.1306 17.6064 31.0811 17.6748ZM30.8158 18.8223C30.7958 18.8528 30.7737 18.8739 30.7579 18.8865L26.6882 20.0097C26.6208 20.0308 26.5629 20.0455 26.5208 20.055C26.3787 20.0877 26.3345 20.0824 26.3029 20.074C26.2724 20.0666 26.225 20.054 26.1934 20.0097C26.1734 19.9813 26.1692 19.9508 26.1682 19.9329L30.7653 18.6876C30.838 18.6497 30.8569 18.6644 30.8611 18.6686C30.8864 18.6918 30.8485 18.7739 30.8158 18.8223ZM30.9137 18.5696L26.225 19.815C26.2124 19.8224 26.1397 19.8392 26.0587 19.8466C25.945 19.8571 25.9039 19.7087 25.8976 19.675C25.8955 19.6655 25.8976 19.6624 25.8923 19.6181C25.8913 19.6045 25.8892 19.5929 25.8944 19.5802C25.8987 19.5687 25.9039 19.5613 25.9092 19.556L25.9229 19.5413C26.1882 19.4718 30.6095 18.3086 30.878 18.238C30.9264 18.2212 30.9495 18.2296 30.9611 18.238C31.0095 18.2717 30.9885 18.4033 30.9137 18.5696Z" fill="#4A4B4C"/>
  <path d="M13.3483 30C13.6064 30 13.8157 29.7907 13.8157 29.5326C13.8157 29.2744 13.6064 29.0652 13.3483 29.0652C13.0902 29.0652 12.8809 29.2744 12.8809 29.5326C12.8809 29.7907 13.0902 30 13.3483 30Z" fill="#4A4B4C"/>
  <path d="M14.9589 28.2894C15.1839 28.2894 15.3663 28.107 15.3663 27.882C15.3663 27.657 15.1839 27.4746 14.9589 27.4746C14.7339 27.4746 14.5515 27.657 14.5515 27.882C14.5515 28.107 14.7339 28.2894 14.9589 28.2894Z" fill="#4A4B4C"/>
  <path d="M16.877 28.9568C17.0392 28.9568 17.1707 28.8253 17.1707 28.6631C17.1707 28.5009 17.0392 28.3694 16.877 28.3694C16.7148 28.3694 16.5833 28.5009 16.5833 28.6631C16.5833 28.8253 16.7148 28.9568 16.877 28.9568Z" fill="#4A4B4C"/>
  <path d="M29.5518 24.076C29.5972 23.7959 29.407 23.532 29.127 23.4866C28.8469 23.4411 28.583 23.6313 28.5376 23.9114C28.4921 24.1914 28.6823 24.4553 28.9624 24.5008C29.2424 24.5462 29.5063 24.356 29.5518 24.076Z" fill="#4A4B4C"/>
  <path d="M28.5294 26.3472C28.5767 26.4567 28.4115 26.5388 28.2609 26.8788C28.1441 27.142 28.1209 27.3673 28.0946 27.6326C28.0778 27.7957 28.0525 28.0705 28.1083 28.4232C28.1336 28.579 28.1746 28.8295 28.3167 29.1211C28.4357 29.3674 28.5641 29.5148 28.7978 29.7822C29.0305 30.0485 29.1547 30.1643 29.2926 30.2401C29.3705 30.2833 29.4631 30.2885 29.501 30.3654C29.5294 30.4233 29.4105 30.4896 29.3336 30.5138C29.2526 30.5391 29.2105 30.5486 29.1431 30.5665C29.0168 30.6001 29.0168 30.6001 28.7715 30.6623C28.3757 30.7623 28.4167 30.7496 28.2083 30.797C28.0335 30.836 27.9883 30.8444 27.8788 30.8328C27.7967 30.8244 27.7735 30.8223 27.664 30.7517C27.4503 30.6149 27.4219 30.5865 27.3124 30.4959C27.1072 30.3254 27.0019 30.1201 26.8008 29.7148C26.6429 29.3969 26.5629 29.2379 26.5324 29.0811C26.5082 28.9569 26.4987 28.7169 26.4808 28.2358C26.4766 28.1126 26.4745 28.0505 26.4745 28.0052C26.4755 27.8768 26.484 27.7221 26.545 27.3273C26.5829 27.0831 26.6166 26.9662 26.6303 26.9357C26.7335 26.7146 26.9145 26.6009 27.1272 26.483C27.2251 26.4293 27.4125 26.3272 27.684 26.2714C27.922 26.2241 28.4504 26.1651 28.5294 26.3472Z" fill="#4A4B4C"/>
  <path d="M27.5988 26.2891C27.5967 26.2807 27.7451 26.2228 27.9314 26.1975C27.9535 26.1944 28.0704 26.1954 28.3041 26.1975C28.3462 26.1975 28.3978 26.1986 28.4525 26.2281C28.4683 26.2365 28.5504 26.2807 28.5599 26.3555C28.5609 26.3628 28.5631 26.3849 28.5346 26.4576C28.5073 26.5281 28.4778 26.5797 28.4683 26.5955C28.4073 26.7007 28.3767 26.7534 28.3609 26.785C28.3051 26.8944 28.2809 26.9892 28.2693 27.0408C28.2493 27.1218 28.2515 27.1524 28.2178 27.2913C28.2041 27.3513 28.2009 27.3587 28.1925 27.3934C28.162 27.525 28.1578 27.6303 28.1514 27.8019C28.1472 27.9187 28.1514 27.9208 28.1462 28.0629C28.1399 28.2251 28.1357 28.2166 28.1357 28.2724C28.1367 28.3893 28.1672 28.4924 28.2272 28.6914C28.2651 28.8167 28.2872 28.8904 28.3294 28.9925C28.3925 29.1472 28.4609 29.2672 28.5083 29.3451C28.5525 29.4178 28.6673 29.5957 28.8557 29.7894C28.9147 29.8494 28.9936 29.9304 29.1115 30.0199C29.1936 30.082 29.2452 30.1115 29.4484 30.2505C29.5084 30.2915 29.5894 30.302 29.5968 30.3526C29.5979 30.3621 29.5989 30.3842 29.5452 30.4494C29.4979 30.5073 29.461 30.5536 29.3915 30.5926C29.2894 30.6505 29.1894 30.6515 29.1463 30.6484L28.1346 30.9042L29.3357 30.541L29.4631 30.3726C29.4389 30.3568 29.4052 30.3336 29.3663 30.3063C29.2947 30.2557 29.241 30.2157 29.2126 30.1936C29.0389 30.061 28.9526 29.9947 28.921 29.9683C28.7631 29.8336 28.661 29.7062 28.5841 29.6104C28.5083 29.5157 28.443 29.4346 28.3746 29.3136C28.2988 29.1799 28.262 29.0735 28.2062 28.9093C28.1357 28.7009 28.0893 28.5672 28.063 28.3777C28.0367 28.1861 28.0441 28.044 28.0525 27.8661C28.0672 27.5787 28.1114 27.3671 28.1241 27.3092C28.1651 27.1176 28.1904 27.0018 28.2567 26.8544C28.3115 26.7313 28.3367 26.5934 28.4104 26.4818C28.4273 26.4555 28.463 26.4049 28.4462 26.3586C28.4283 26.3081 28.3557 26.2902 28.3136 26.2818C28.0314 26.2281 27.603 26.3028 27.5988 26.2891Z" fill="#4A4B4C"/>
  <path d="M28.1462 26.4809C28.1199 26.4693 27.9988 26.6935 27.9293 26.8357C27.8525 26.9925 27.7283 27.2504 27.6546 27.6168C27.6219 27.7799 27.5788 27.9915 27.5967 28.2673C27.623 28.6884 27.7725 28.9948 27.8862 29.2221C27.9714 29.3916 28.0999 29.6453 28.3567 29.9096C28.6704 30.2327 29.0505 30.458 29.0799 30.4233C29.0957 30.4043 29.0147 30.3096 28.9136 30.1917C28.7694 30.0233 28.6683 29.939 28.5883 29.859C28.403 29.6748 28.3051 29.4948 28.2051 29.3095C28.1346 29.18 28.023 28.9695 27.9525 28.6726C27.8851 28.3905 27.8893 28.1726 27.8946 27.9136C27.902 27.5357 27.9577 27.2431 27.9809 27.1325C28.062 26.7378 28.1736 26.4925 28.1462 26.4809Z" fill="#4A4B4C"/>
  <path d="M26.5766 27.1104C26.5798 27.1114 26.5387 27.263 26.504 27.5588C26.4798 27.762 26.4492 28.0367 26.4682 28.3831C26.4798 28.5999 26.4998 28.9379 26.6419 29.3526C26.6882 29.4895 26.7756 29.739 26.9598 30.0179C27.2767 30.499 27.6472 30.7106 27.6251 30.7411C27.6051 30.7675 27.2956 30.6359 27.0324 30.3653C26.7545 30.08 26.6461 29.7621 26.5482 29.461C26.4229 29.0779 26.3913 28.7599 26.3819 28.622C26.3229 27.7915 26.5703 27.1083 26.5766 27.1104Z" fill="#4A4B4C"/>
  <path d="M23.3985 34.8319C23.4037 34.7319 23.4227 34.6603 23.4416 34.5845C23.689 33.6087 24.127 32.9002 24.127 32.9002C24.3459 32.5454 24.4743 32.3381 24.7207 32.117C25.1197 31.7612 25.2723 31.6622 25.2734 31.6622C25.3355 31.6222 25.4765 31.5348 25.6155 31.3759C25.6713 31.3127 25.7176 31.2601 25.7555 31.1801C25.8292 31.0253 25.8187 30.8853 25.7976 30.6558C25.7776 30.4379 25.7639 30.2874 25.686 30.1032C25.5881 29.8726 25.5186 29.8916 25.4134 29.6558C25.3313 29.4705 25.3102 29.3168 25.2807 29.0894C25.2649 28.9673 25.2449 28.7683 25.2523 28.502C25.2628 28.1651 25.2734 27.8114 25.4407 27.4051C25.5576 27.1219 25.7008 26.9324 25.825 26.7693C25.9313 26.6292 26.1292 26.3703 26.4334 26.1397C26.7261 25.9176 26.9861 25.8229 27.3345 25.6997C28.2167 25.386 28.6578 25.2291 28.8515 25.1755C30.2948 24.7733 31.8085 24.4217 32.297 24.3091L32.9613 24.7281L32.3391 24.3996C31.7643 24.5165 30.4095 24.8081 29.0431 25.2734C28.1799 25.5671 28.4178 25.5544 27.2788 25.965C27.0303 26.0545 26.8314 26.1229 26.5934 26.2934C26.0955 26.6503 25.8734 27.1398 25.7892 27.3282C25.6429 27.6577 25.5997 27.9325 25.5723 28.1115C25.5144 28.4915 25.4544 28.8862 25.6144 29.3C25.6313 29.3431 25.7144 29.5273 25.8797 29.8937C25.9797 30.1148 25.9987 30.1537 26.026 30.2358C26.0871 30.4148 26.1545 30.6148 26.1376 30.8653C26.1303 30.9706 26.0924 31.3222 25.8302 31.5917C25.7008 31.7254 25.6292 31.7222 25.4249 31.8643C25.2491 31.9865 25.1249 32.1381 24.866 32.4233C24.7217 32.5812 24.6502 32.6612 24.5659 32.7728C24.5365 32.8118 24.407 32.9855 24.2585 33.255C24.0954 33.5518 24.0091 33.7855 23.9017 34.0729C23.8038 34.3372 23.7532 34.474 23.7132 34.6666C23.6648 34.8993 23.6522 35.0983 23.6501 35.2393L23.1795 45.4158L23.408 35.2593C23.4069 35.2425 23.4048 35.1804 23.4048 35.1635C23.3974 34.9077 23.3964 34.874 23.3985 34.8319Z" fill="#4A4B4C"/>
  <path d="M14.4126 26.8767L41.3829 19.4077C41.4471 19.3835 41.5408 19.3425 41.6408 19.273C41.7745 19.1803 41.8535 19.0845 41.8829 19.0509C41.9735 18.9445 42.1524 18.7919 42.5103 18.4866C42.9125 18.1434 43.3051 17.9392 43.5241 17.8266C43.9526 17.6065 44.2936 17.4992 44.6168 17.3971C44.9295 17.2992 45.3442 17.1865 45.8443 17.1034L48.236 16.5149L45.9001 17.2223C45.8179 17.2349 45.7316 17.2507 45.6421 17.2697C45.5769 17.2834 45.5285 17.296 45.5074 17.3013C45.1674 17.3865 44.9674 17.4381 44.7958 17.4876C44.2673 17.6434 43.8262 17.8529 43.8262 17.8529C43.7189 17.9034 43.3683 18.075 42.9483 18.3655C42.9483 18.3655 42.4409 18.7172 42.0745 19.0888C42.0682 19.0951 42.0293 19.1351 41.9756 19.1877C41.9135 19.2488 41.8629 19.2972 41.8524 19.3067C41.7503 19.4025 41.5661 19.5004 41.4429 19.5614L28.5704 23.0954L19.9509 25.4281L14.4126 26.8767Z" fill="#4A4B4C"/>
  <path d="M41.5619 20.1899L49.0455 18.1614L49.1666 18.5509L41.7092 20.5394" fill="#4A4B4C"/>
  <path d="M41.7629 20.7141L49.1666 18.7256L49.2203 18.9003L41.7629 20.8615" fill="#4A4B4C"/>
  <path d="M48.9519 19.196L41.8577 21.0899V21.292L48.9066 19.3845" fill="#4A4B4C"/>
  <path d="M42.5514 19.0224C42.7272 18.9613 43.0009 18.8571 43.323 18.6918C43.602 18.5487 43.7031 18.4697 43.9389 18.3518C44.1957 18.2234 44.4189 18.1465 44.8579 18.0213C45.499 17.8381 45.9527 17.737 46.3001 17.6539C46.6675 17.5665 47.1907 17.4318 47.8255 17.2402C48.4981 17.0138 48.6434 16.9222 48.6339 16.8822C48.6181 16.8159 48.1729 16.858 47.8623 16.9096C47.4275 16.9823 47.2749 17.0717 46.778 17.2223C46.4096 17.3339 46.5348 17.2728 45.4095 17.5528C45.0979 17.6307 44.7874 17.7097 44.3989 17.8381C44.202 17.9023 43.9968 17.976 43.7557 18.0865C43.5831 18.1655 43.423 18.2402 43.2325 18.3718C43.0493 18.4971 42.9125 18.6245 42.8188 18.7213" fill="#4A4B4C"/>
  <path d="M31.7359 18.874L40.4144 16.6781L47.3475 14.719L40.2176 16.5149" fill="#4A4B4C"/>
  <path d="M31.6296 17.936L39.2849 15.7348L47.2317 13.6799L39.3154 15.9696" fill="#4A4B4C"/>
  <path d="M31.4422 17.6644L38.9796 15.54L47.197 13.4304L39.0143 15.7106" fill="#4A4B4C"/>
  <path d="M14.5052 27.1261L30.3348 22.871L42.3977 19.4866L30.2053 22.7552" fill="#4A4B4C"/>
  <path d="M17.3696 21.3909L20.832 20.4151L24.6007 19.4866L20.9194 20.594" fill="#4A4B4C"/>
  <path d="M17.4875 21.6067L20.9857 20.6329L24.5649 19.7266L20.9857 20.7393" fill="#4A4B4C"/>
  <path d="M16.0222 22.9954L16.2285 23.3059L16.877 25.6482V26.0598L16.6296 25.6977L16.0222 23.4364" fill="#4A4B4C"/>
  <path d="M16.4054 22.8752L16.6127 23.1858L17.2612 25.5281V25.9386L17.0138 25.5775L16.4054 23.3153" fill="#4A4B4C"/>
  <path d="M16.7938 22.7922L17.0012 23.1028L17.6486 25.4461V25.8567L17.4012 25.4945L16.7938 23.2333" fill="#4A4B4C"/>
  <path d="M17.1844 22.6636L17.3917 22.9741L18.0392 25.3174V25.728L17.7918 25.3659L17.1844 23.1047" fill="#4A4B4C"/>
  <path d="M17.6118 22.5752L17.8191 22.8857L18.4676 25.228V25.6396L18.2202 25.2775L17.6118 23.0152" fill="#4A4B4C"/>
  <path d="M18.0013 22.4827L18.2086 22.7932L18.8571 25.1355V25.546L18.6097 25.185L18.0013 22.9227" fill="#4A4B4C"/>
  <path d="M18.3887 22.3364L18.596 22.647L19.2445 24.9892V25.4009L18.9971 25.0387L18.3887 22.7775" fill="#4A4B4C"/>
  <path d="M18.7771 22.2659L18.9845 22.5764L19.6319 24.9187V25.3303L19.3845 24.9682L18.7771 22.707" fill="#4A4B4C"/>
  <path d="M19.1687 22.1353L19.3761 22.4469L20.0235 24.7891V25.1997L19.7761 24.8386L19.1687 22.5763" fill="#4A4B4C"/>
  <path d="M19.5751 22.0605L19.7824 22.3711L20.4309 24.7134V25.1239L20.1835 24.7628L19.5751 22.5006" fill="#4A4B4C"/>
  <path d="M19.9509 21.9163L20.1583 22.2268L20.8057 24.5691V24.9796L20.5583 24.6186L19.9509 22.3563" fill="#4A4B4C"/>
  <path d="M20.3435 21.8362L20.5509 22.1467L21.1983 24.489V24.9006L20.952 24.5385L20.3435 22.2773" fill="#4A4B4C"/>
  <path d="M20.7436 21.7488L20.9509 22.0593L21.5994 24.4016V24.8132L21.352 24.4511L20.7436 22.1899" fill="#4A4B4C"/>
  <path d="M21.111 21.6226L21.3183 21.9331L21.9668 24.2754V24.6859L21.7194 24.3249L21.111 22.0626" fill="#4A4B4C"/>
  <path d="M21.5152 21.5132L21.7215 21.8237L22.37 24.166V24.5776L22.1226 24.2155L21.5152 21.9543" fill="#4A4B4C"/>
  <path d="M21.9121 21.4163L22.1184 21.7268L22.7669 24.0691V24.4796L22.5195 24.1186L21.9121 21.8563" fill="#4A4B4C"/>
</svg>
