<svg width="60" height="60" viewBox="0 0 60 60" fill="none" xmlns="http://www.w3.org/2000/svg">
	<g clip-path="url(#clip0_571_1110)">
		<path d="M57.6908 30.0236C57.6908 45.3378 45.2762 57.7524 29.9621 57.7524C14.6479 57.7524 2.23334 45.3378 2.23334 30.0236C2.23334 14.7095 14.6479 2.29492 29.9621 2.29492C45.2762 2.29492 57.6908 14.7095 57.6908 30.0236Z" fill="#809BB5" stroke="#7A7A7A" stroke-width="3" stroke-miterlimit="10"/>
		<path d="M47 19C46.4476 19 46 19.4476 46 20C46 20.5524 46.4476 21 47 21C47.5524 21 48 20.5524 48 20C47.9988 19.4465 47.5524 19 47 19ZM47 20.8021C46.5558 20.8021 46.1968 20.4419 46.1968 19.9988C46.1968 19.5558 46.557 19.1956 47 19.1956C47.443 19.1956 47.8032 19.5558 47.8032 19.9988C47.8032 20.4419 47.443 20.8021 47 20.8021Z" fill="#BEBDBD"/>
		<path d="M39.2944 27.7107C43.2323 27.7107 46.4246 24.4729 46.4246 20.4789C46.4246 16.4849 43.2323 13.2471 39.2944 13.2471C35.3564 13.2471 32.1641 16.4849 32.1641 20.4789C32.1641 24.4729 35.3564 27.7107 39.2944 27.7107Z" fill="black"/>
		<path d="M39.2944 27.1321C42.9173 27.1321 45.8544 24.1533 45.8544 20.4788C45.8544 16.8042 42.9173 13.8254 39.2944 13.8254C35.6714 13.8254 32.7344 16.8042 32.7344 20.4788C32.7344 24.1533 35.6714 27.1321 39.2944 27.1321Z" fill="#BEBDBD"/>
		<path d="M14.1662 35.4798C14.2144 35.5454 14.2862 35.6449 14.3733 35.7649C14.6667 36.167 14.8144 36.369 14.8923 36.4654C15.041 36.649 15.2144 36.8623 15.4882 37.088C15.6462 37.2182 15.8831 37.409 16.24 37.5547C16.3815 37.6121 16.6677 37.729 17.0174 37.7362C17.6123 37.7485 18.0595 37.4388 18.4431 37.1659C18.7005 36.9823 18.7282 36.9218 19.4287 36.2326C20.0154 35.6541 20.3159 35.3598 20.6728 35.0654C20.9918 34.8039 21.3005 34.5516 21.7621 34.288C22.4113 33.9167 22.9518 33.7557 23.0841 33.7177C23.4369 33.6162 23.8503 33.4972 24.4062 33.5105C24.9292 33.5229 25.3128 33.6449 25.6246 33.7444C25.9436 33.8459 26.4 33.9947 26.8954 34.3403C26.8954 34.3403 27.3785 34.6777 27.958 35.3772C28.2954 35.7844 28.4636 35.9875 28.4769 36.0254C28.481 36.0357 28.4933 36.0747 28.519 36.0798C28.5774 36.0911 28.6462 35.9105 28.72 35.768C28.7856 35.6398 28.88 35.5229 29.0687 35.288C29.3692 34.9147 29.7128 34.6634 29.9087 34.5208C30.3323 34.2111 30.7026 34.0367 30.8492 33.9711C31.1303 33.8449 31.6667 33.61 32.4123 33.5516C32.6462 33.5331 33.1139 33.5157 33.6862 33.6388C34.2482 33.7598 34.639 33.9567 35.0031 34.1454C35.64 34.4736 36.0718 34.8213 36.3641 35.0572C36.718 35.3444 36.9908 35.6111 37.5364 36.1434C37.7908 36.3916 38.0523 36.6305 38.3036 36.8818C38.5764 37.1547 38.7477 37.3372 39.0564 37.5188C39.3436 37.688 39.5487 37.7372 39.6062 37.7505C39.6974 37.7711 39.958 37.8223 40.2862 37.7649C40.6359 37.7034 40.8697 37.5526 41.0964 37.4029C41.4595 37.1639 41.6821 36.9167 41.9364 36.6357C42.2923 36.2408 42.4708 36.0439 42.6021 35.8398C42.6226 35.807 42.7703 35.5762 42.8051 35.5936C42.8174 35.5998 42.8092 35.6336 42.7949 35.7936C42.7918 35.8264 42.7897 35.8593 42.7867 35.8921C42.7641 36.1423 42.7672 36.5444 42.7672 36.5444C42.7692 36.9085 42.6472 37.3064 42.5621 37.5813C42.5313 37.6818 42.4051 38.0798 42.1385 38.5711C42.0574 38.7208 41.8072 39.1639 41.3415 39.7013C41.158 39.9126 40.5785 40.5577 39.6195 41.1793C39.16 41.4777 38.3949 41.9639 37.281 42.2459C35.9754 42.5762 34.9139 42.4418 34.2359 42.3485C32.9108 42.167 31.9528 41.7434 31.6277 41.5905C29.6739 40.6736 28.5518 39.2582 28.4923 39.1239C28.4882 39.1146 28.4585 39.0418 28.4298 39.0449C28.399 39.048 28.3856 39.1331 28.3815 39.1526C28.3456 39.3444 28.0749 39.5916 27.958 39.6972C27.3097 40.2818 26.9867 40.5752 26.7508 40.7393C26.24 41.0962 25.7015 41.4726 24.9097 41.7988C23.8697 42.2275 23.0031 42.3177 22.3487 42.3803C21.4769 42.4644 20.638 42.5454 19.5785 42.2675C18.5395 41.9946 17.8133 41.5157 17.4595 41.2777C16.8503 40.8685 16.4359 40.4582 16.0872 40.1146C15.6728 39.7054 15.3959 39.4316 15.1056 38.9854C14.6985 38.3598 14.5292 37.7998 14.4287 37.4572C14.2995 37.0039 14.1528 36.3249 14.1662 35.4798Z" fill="black"/>
		<path d="M48 20V49" stroke="black" stroke-width="0.5" stroke-miterlimit="10"/>
		<path d="M33.361 20.6624C33.4646 20.9813 33.7046 21.5752 33.9231 22.0316C34.2944 22.8059 34.72 23.3362 34.8657 23.5024C35.1344 23.809 35.4482 24.1813 36.0821 24.7003C36.5303 25.0675 36.9641 25.2931 37.5077 25.5106C38.4862 25.9003 39.3087 25.9147 39.321 26.0162C39.3333 26.1198 38.4862 26.2316 37.5077 26.1413C36.3395 26.0336 35.5303 25.3629 35.2615 25.1167C34.4041 24.3342 33.8523 23.5065 33.6421 22.7824C33.4031 21.9618 33.3569 21.1413 33.361 20.6624Z" fill="#D8D8D8"/>
	</g>
	<defs>
		<clipPath id="clip0_571_1110">
			<rect width="60" height="60" fill="white"/>
		</clipPath>
	</defs>
</svg>
