<svg width="60" height="60" viewBox="0 0 60 60" fill="none" xmlns="http://www.w3.org/2000/svg">
	<path d="M58.5 30C58.5 45.7401 45.7401 58.5 30 58.5C14.2599 58.5 1.5 45.7401 1.5 30C1.5 14.2599 14.2599 1.5 30 1.5C45.7401 1.5 58.5 14.2599 58.5 30Z" fill="#020202" stroke="#5F5F5E" stroke-width="3" stroke-miterlimit="10"/>
	<path d="M47.5983 25.7858C47.486 25.7597 47.3453 26.1784 46.9618 26.8876C46.6849 27.3993 46.2549 28.1936 45.6967 28.7802C45.0216 29.4905 44.2738 29.7741 43.4898 30.0725C42.4278 30.4765 41.5598 30.5593 40.7939 30.6262C39.4459 30.7442 38.4315 30.624 37.4433 30.506C36.6796 30.4152 35.6142 30.2461 34.3695 29.9057C34.0393 29.8161 33.5026 29.6368 32.4304 29.2783C29.857 28.4182 29.1422 28.1175 28.7746 27.9587C28.5896 27.8781 27.9905 27.616 27.2235 27.2291C26.6982 26.9636 25.9856 26.6028 25.1744 26.0933C24.5378 25.6939 24.5639 25.6576 23.2999 24.7635C21.6399 23.5903 21.6433 23.6879 21.1214 23.2306C20.6415 22.8119 20.2012 22.29 19.3207 21.2461C18.5004 20.2737 18.0862 19.7779 17.8343 19.2889C17.3192 18.2858 17.115 17.2578 17.0957 17.1569C17.0163 16.7416 16.9856 16.3932 16.8188 15.6705C16.5408 14.4678 16.382 14.3849 16.3014 14.377C16.1585 14.3645 16.0541 14.5755 15.7716 15.0612C15.1588 16.1164 15.421 15.5207 14.7958 16.6417C14.402 17.3475 14.1933 17.7231 13.9743 18.1928C13.4841 19.2435 13.2776 20.0536 12.9497 21.3414C12.9497 21.3414 12.4584 23.2669 12.506 24.3982C12.5083 24.4504 12.5208 24.6523 12.5333 24.8418C12.5514 25.105 12.5616 25.2378 12.5798 25.2945C12.6433 25.4874 12.733 25.5476 12.7455 25.7382C12.7523 25.8369 12.7341 25.9118 12.7273 25.9413C12.5923 26.529 12.6082 27.1417 12.5424 27.742C12.4402 28.6724 12.4187 29.5279 12.4039 30.1338C12.3778 31.1901 12.4051 31.9912 12.4221 32.461C12.4402 32.9591 12.4811 33.8532 12.5877 34.964C12.6638 35.7594 12.8067 37.2367 13.1505 38.8978C13.5703 40.9231 13.8699 42.3664 14.8037 44.0967C15.1747 44.7832 16.1017 46.3626 17.7402 47.8547C18.4697 48.5196 19.1766 49.0177 19.6237 49.332C20.9149 50.242 21.9554 50.7775 22.2005 50.9023C22.8381 51.2268 23.6244 51.6228 24.6933 51.9553C25.4592 52.1936 26.208 52.3082 27.6762 52.5283C29.5734 52.8119 31.0042 52.9356 31.5635 52.981C32.7663 53.0774 33.708 53.1137 34.4172 53.1285C36.0522 53.1625 36.7273 53.0899 37.1233 53.0366C38.2352 52.8857 38.907 52.6474 39.0806 52.5839C39.7829 52.3274 40.2731 52.0392 40.6135 51.8361C40.9981 51.6069 41.9172 51.0294 42.8941 50.0355C43.0575 49.8698 43.6974 49.2083 44.3623 48.2075C45.0567 47.1625 45.4346 46.265 45.6547 45.7329C45.9236 45.085 46.0961 44.5506 46.1902 44.2374C46.4818 43.2696 46.5817 42.5933 46.7814 41.2828C47.3101 37.8063 47.3033 37.9912 47.3544 37.4783C47.4633 36.3777 47.4883 35.5858 47.5303 34.2923C47.5552 33.5287 47.5575 33.0782 47.5768 30.4413C47.5858 29.1512 47.5927 28.5861 47.5949 27.9201C47.6029 26.5971 47.7481 25.8199 47.5983 25.7858ZM42.7829 43.1493C42.6513 44.579 41.9773 46.408 41.9126 46.5918C41.848 46.7745 41.6494 47.377 41.6017 47.47C41.5541 47.5642 41.0798 48.5468 40.8438 48.8066C40.6747 48.9927 40.466 48.8237 39.7761 48.6875C39.2099 48.5763 39.4141 48.6625 38.1933 48.4901C37.3786 48.3743 36.7137 48.2541 36.2939 48.1735C36.2939 48.1735 35.427 48.0078 34.6328 47.8172C30.3608 46.7972 27.59 45.0476 27.59 45.0476C24.8169 43.2423 23.2659 41.1841 22.407 40.0234C21.2281 38.428 19.2946 35.7514 18.6876 31.7938C18.3926 29.8694 18.5038 28.2457 18.6479 27.1644L19.0439 27.2041C19.2231 27.2393 19.4989 27.2938 19.8347 27.3619C22.5182 27.9088 25.1891 28.4534 27.826 29.3395C29.6789 29.9625 30.9191 30.5547 32.8502 31.4761C35.7152 32.8433 37.5681 33.7431 39.5764 35.512C40.8427 36.6262 41.848 37.5339 42.4255 39.1122C43.0087 40.7041 42.8703 42.1973 42.7829 43.1493Z" fill="#808285"/>
	<path d="M36.649 30.6752C36.8657 30.8545 37.2073 31.1223 37.652 31.4105C38.0889 31.693 38.3158 31.7962 38.722 32.0345C39.3495 32.4033 39.7818 32.7312 40.2152 33.0591C40.4104 33.2077 41.0787 33.7195 41.8865 34.4853C42.3325 34.9074 42.8113 35.3647 43.357 36.0455C43.6804 36.4494 43.8427 36.6514 44.0038 36.9373C44.1853 37.2618 44.2988 37.5557 44.7163 38.3862C44.7969 38.5451 44.9433 38.8299 45.2508 39.0103C45.3472 39.067 45.4754 39.1408 45.6297 39.1215C45.7387 39.1079 45.9236 39.0421 46.1641 38.6086C46.3888 38.2058 46.4512 37.862 46.5431 37.3832C46.7587 36.2565 46.7213 36.5413 46.7882 36.1351C46.879 35.5859 46.9232 35.2047 47.0106 34.4638C47.0662 33.9952 47.1275 33.4721 47.1887 32.7698C47.2035 32.5984 47.2409 32.1673 47.2784 31.5886C47.3544 30.4086 47.3907 29.8106 47.3226 29.3828C47.2421 28.8734 47.0673 28.2561 47.0333 28.1347C46.9652 27.8931 46.9017 27.6945 46.8551 27.5549" fill="#979A9D"/>
	<path d="M16.2186 14.4656C16.197 15.2564 16.2492 16.407 16.635 17.7107C17.5144 20.6823 19.525 22.4126 21.6286 24.1736C25.1732 27.143 28.5386 28.5011 30.3665 29.2216C34.2595 30.7568 37.1267 31.0881 38.9104 31.163C40.795 31.2424 42.43 31.0768 44.0424 30.2757C44.688 29.9546 45.7409 29.4157 46.5669 28.2231C47.3873 27.0386 47.5598 25.82 47.5938 25.1721C47.6902 23.3045 46.8517 21.9225 45.6241 19.9573C44.8922 18.7852 44.0151 17.6244 42.8782 16.407C41.8185 15.2723 39.7455 13.087 36.3313 11.2194C33.4765 9.65809 31.0666 9.07375 29.452 8.69478C26.7492 8.06051 25.2424 8.11044 24.4868 8.16717C23.9319 8.20915 22.7666 8.29538 21.6297 8.69478C18.4618 9.80787 16.8517 12.8816 16.3037 14.0764" fill="#182D42"/>
	<path d="M28.5601 9.08181C27.9213 9.28491 27.1135 9.58673 26.2205 10.0395C25.1812 10.5682 24.3994 11.1117 23.9036 11.4884C22.8676 12.2736 22.323 12.6854 21.8317 13.4717C21.2791 14.3556 21.1237 15.1817 21.0522 15.589C20.8423 16.7702 21.0193 17.6994 21.1418 18.3076C21.2076 18.6344 21.472 19.8643 22.5238 21.673C23.7436 23.7721 24.9247 24.7615 24.775 24.926C24.6218 25.0939 23.2954 24.1975 22.2572 23.2989C21.6048 22.735 20.4213 21.6128 19.3162 19.845C18.7443 18.9294 18.3461 18.294 18.0681 17.3046C17.8457 16.5149 17.4769 15.2032 17.9784 13.7395C18.4686 12.3099 19.5182 11.5247 20.2511 10.9767C21.4459 10.0826 22.5658 9.75806 23.5495 9.48348C24.7284 9.15443 26.6437 8.77659 29.098 8.99331" fill="#1F3952"/>
	<path d="M18.8646 27.1725C18.8646 27.1748 18.8646 27.6684 18.8646 27.6706C18.8646 28.8178 18.8646 28.8779 18.8646 28.9074C18.8657 29.8877 19.0416 31.1597 19.0495 31.2141C19.1891 32.2092 19.3604 33.4358 19.972 34.8858C20.2874 35.6336 20.5927 36.1408 21.0613 36.9157C21.4028 37.483 21.9837 38.4373 22.8699 39.5175C23.2443 39.9747 24.4119 41.3544 26.284 42.7648C28.0303 44.0821 29.5337 44.7822 29.882 44.9422C30.8657 45.3915 31.6702 45.6513 32.5019 45.9203C33.8703 46.3616 34.9266 46.6022 35.7492 46.7871C37.8506 47.2591 39.4017 47.46 39.6615 47.4883C39.7035 47.4929 39.8805 47.511 40.1233 47.5439C40.5102 47.5961 40.5091 47.6109 40.7326 47.6358C41.2012 47.6892 41.3283 47.6392 41.3782 47.7277C41.4361 47.8287 41.3113 47.9694 41.1014 48.337C40.9028 48.6854 40.888 48.783 40.7689 49.0008C40.4739 49.5432 40.0291 49.921 39.6796 50.2183C39.3461 50.5019 38.8116 50.9059 38.056 51.2701C37.7791 51.4029 36.8657 51.8249 35.343 52.0451C34.6554 52.1449 33.9508 52.188 32.3169 52.1188C30.2122 52.0303 29.1592 51.9861 27.7591 51.7308C26.5915 51.5186 25.1324 51.244 23.3669 50.4577C21.8147 49.7656 20.7651 49.0076 19.8971 48.3722C18.7091 47.5031 17.6925 46.7588 16.7042 45.438C15.9837 44.4736 15.5934 43.6237 15.2837 42.9464C14.6449 41.5541 14.3567 40.4104 14.1025 39.3847C13.7837 38.0935 13.6396 37.0723 13.5306 36.2849C13.3752 35.1593 13.3105 34.2856 13.2719 33.7569C13.2209 33.0579 13.1573 32.165 13.1607 31.0258C13.1619 30.6718 13.1698 30.261 13.1789 29.7527C13.1993 28.6929 13.1256 28.5171 13.2163 28.2028C13.3196 27.842 13.5964 27.3359 14.4157 26.856" fill="#494B4C"/>
	<path d="M13.2288 32.7538C13.3173 32.9013 13.6577 33.4448 14.3203 33.9349C14.7322 34.239 15.2292 34.6078 15.9474 34.6475C16.1846 34.6611 16.6918 34.6895 17.1286 34.3797C17.3884 34.1959 17.5836 33.919 17.8411 32.9977C18.1464 31.9073 18.2326 31.0144 18.2644 30.6138C18.3461 29.6051 18.2576 29.0106 18.3086 28.3411C18.3143 28.2719 18.3324 28.0427 18.3086 27.7398C18.2848 27.447 18.3234 27.2973 18.2564 27.2156C18.1611 27.0998 18.0034 27.1123 17.7402 27.0942C17.107 27.0522 17.5155 27.0896 16.8858 27.0363C16.1834 26.9762 15.8328 26.9569 15.75 26.9512C15.2803 26.9206 15.2065 26.8831 15.0329 26.8616C14.9467 26.8502 14.9036 26.84 14.8899 26.84C14.8525 26.84 14.7458 26.8366 14.6721 26.8343C14.5178 26.8298 14.486 26.84 14.4168 26.8582C14.3793 26.8684 14.2965 26.9047 14.2455 26.9364C13.9754 27.1032 13.9368 27.1373 13.6918 27.3914C13.5613 27.5265 13.3888 27.7398 13.2436 28.0881C13.2186 28.1471 13.1834 28.2129 13.1619 28.4387C13.1426 28.6316 13.1675 28.8415 13.163 28.947C13.1528 29.2182 13.1619 29.4247 13.1619 29.4928C13.163 29.9126 13.1732 30.5117 13.1619 31.3343C13.1517 32.1343 13.163 32.6426 13.2288 32.7538Z" fill="#5B5D5F"/>
	<path d="M34.6259 21.8136L25.9289 17.2341L25.3752 18.3971L33.9429 22.7553L34.6259 21.8136Z" fill="#808285"/>
	<path d="M31.7995 24.7045C31.7644 24.7159 31.7088 24.3993 31.4262 24.2064C31.3627 24.1633 31.2186 24.0657 31.0983 24.1157C30.9531 24.1769 30.9349 24.4141 30.9281 24.5003C30.9043 24.8191 31.0745 25.0619 31.1199 25.1221C31.3253 25.3978 31.6169 25.4886 31.753 25.5294C32.4463 25.7348 33.0806 25.374 33.4834 25.1448C34.045 24.8248 34.1539 24.5502 34.1846 24.4549C34.2141 24.3641 34.2742 24.1815 34.2073 23.9908C34.1778 23.9057 34.1426 23.8785 33.8453 23.4927C33.7398 23.3554 33.6819 23.2783 33.6978 23.1875C33.7114 23.1104 33.7693 23.0763 33.8453 23.0071C33.9032 22.9538 34.0008 22.7983 34.1959 22.4863C34.4478 22.0858 34.4036 22.13 34.4444 22.079C34.6702 21.8021 34.8393 21.793 34.9346 21.5661C34.9913 21.4322 34.9834 21.3131 34.9765 21.2098C34.9425 20.7276 34.9255 20.4859 34.8302 19.8494C34.7462 19.2866 34.7882 19.3025 34.6736 18.489C34.6044 17.9988 34.5976 18.0589 34.5794 17.8604C34.5533 17.5846 34.5227 17.0219 34.6634 16.332C34.7814 15.7545 34.9675 15.3346 35.0401 15.1803C35.2489 14.7356 35.4429 14.3214 35.8877 13.9663C36.2644 13.6656 36.6365 13.5533 36.7772 13.5158C36.8805 13.4886 37.3139 13.3819 37.8665 13.484C38.275 13.5601 38.5586 13.7155 38.6312 13.7564C38.8899 13.9027 39.0658 14.0809 39.4164 14.4371C39.6388 14.6629 39.6808 14.7333 39.7091 14.7934C39.8283 15.0408 39.8033 15.2768 39.7716 15.5468C39.7205 15.9825 39.7137 16.2015 39.5514 16.3422C39.4039 16.4704 39.2224 16.4784 38.9648 16.4886C38.7265 16.4988 38.4894 16.509 38.284 16.3524C38.0911 16.2049 38.0321 15.9927 38.0015 15.8815C37.9198 15.5865 37.9902 15.3346 38.0753 15.034C38.1184 14.8808 38.191 14.672 38.2216 14.6777C38.2489 14.6834 38.2341 14.8638 38.2216 15.0124C38.1978 15.3017 38.1649 15.3449 38.1797 15.4935C38.1921 15.6228 38.2069 15.7669 38.3158 15.86C38.4542 15.978 38.6675 15.9496 38.7969 15.8918C39.0272 15.7896 39.101 15.5502 39.1316 15.4515C39.1849 15.279 39.1679 15.1361 39.152 15.0011C39.1373 14.874 39.1112 14.6584 38.9739 14.4462C38.8309 14.2261 38.6449 14.1262 38.4191 14.006C38.2999 13.9424 38.0514 13.8131 37.6963 13.7654C37.5533 13.7461 37.1936 13.7019 36.7852 13.8494C36.3188 14.0173 36.0567 14.3407 35.8741 14.5722C35.7697 14.7038 35.4826 15.0918 35.2988 15.818C35.1297 16.4829 35.1581 16.9969 35.2046 17.7333C35.2137 17.8865 35.2194 17.9194 35.4973 20.0264C35.5212 20.2034 35.5666 20.5551 35.6233 21.0215C35.7084 21.7295 35.7504 22.088 35.7595 22.3513C35.7776 22.9129 35.7912 23.3123 35.6449 23.8172C35.469 24.4209 35.1683 24.8214 35.0582 24.9587C34.6225 25.5045 34.2243 25.812 34.0847 25.88C33.5492 26.1421 33.0159 26.2545 32.629 26.2783C32.0696 26.3123 31.6214 26.2023 31.1846 25.9436C31.0677 25.8744 30.7171 25.6599 30.5355 25.2208C30.4913 25.1153 30.3302 24.7079 30.4936 24.2677C30.5333 24.161 30.6762 23.7775 30.986 23.7231C31.1494 23.6947 31.2912 23.7696 31.3423 23.7968C31.5284 23.8955 31.6123 24.0555 31.677 24.1837C31.8075 24.4368 31.8313 24.6943 31.7995 24.7045Z" fill="#80332C"/>
	<path d="M31.3117 25.795C31.4036 25.8006 31.6566 25.9436 32.0662 25.9538C32.4735 25.964 32.7946 25.9652 32.9898 25.9277C33.4743 25.8358 33.809 25.644 33.9009 25.5896C34.3707 25.3105 34.6282 24.961 34.7859 24.7443C35.031 24.4062 35.1615 24.0941 35.2284 23.9114C35.3589 23.5529 35.393 23.267 35.4236 23.0003C35.4883 22.4364 35.4531 22.0064 35.4111 21.5173C35.3601 20.9262 35.2704 20.4054 35.2284 20.1648C35.1649 19.7972 35.1275 19.5941 35.0719 19.1766C35.0412 18.9462 35.048 18.8691 35.0197 18.4481C34.9607 17.5654 34.9402 17.6187 34.9289 17.2647C34.9153 16.8585 34.9039 16.4319 35.0072 15.8986C35.0787 15.5287 35.1343 15.2439 35.3328 14.9103C35.393 14.8082 35.6324 14.4235 36.0999 14.1172C36.2213 14.0378 36.4436 13.9073 36.7477 13.8142C37.0132 13.7325 37.2561 13.7042 37.2583 13.7144C37.2606 13.7235 37.0756 13.753 36.8465 13.8494C36.7818 13.8766 36.6138 13.9504 36.3586 14.1342C36.0953 14.3237 35.8604 14.4928 35.663 14.7685C35.4554 15.0601 35.3918 15.3267 35.309 15.6796C35.2069 16.1142 35.1989 16.4478 35.1921 16.8801C35.1865 17.2726 35.2455 17.4916 35.3169 18.1077C35.3646 18.5208 35.393 18.8021 35.4508 19.2038C35.469 19.3297 35.4645 19.4217 35.6086 20.1966C35.781 21.127 35.73 21.2655 35.7572 21.4912C35.7946 21.8044 35.8275 22.0756 35.8219 22.4455C35.8185 22.686 35.8094 23.0843 35.6834 23.5813C35.6142 23.8547 35.503 24.2825 35.1955 24.7602C35.0798 24.9406 34.8404 25.3048 34.3922 25.6361C34.2856 25.7155 33.8691 26.0128 33.244 26.1671C33.1203 26.1978 32.7595 26.2794 32.2988 26.2488C31.9539 26.2261 31.7735 26.1422 31.6169 26.0548C31.4671 25.9708 31.2606 25.7916 31.3117 25.795Z" fill="#808285"/>
	<path d="M36.8884 16.6635C36.8544 16.0304 36.8283 15.5368 36.5934 14.9161C36.3313 14.2217 35.9535 13.7531 35.7515 13.5262C35.5518 13.3027 35.115 12.8239 34.3831 12.4948C33.649 12.1646 33.0125 12.1612 32.4247 12.1578C31.6203 12.1533 30.9996 12.3042 30.6978 12.3893C29.9194 12.6094 29.3896 12.926 28.9924 13.1688C27.9645 13.794 27.2893 14.5031 26.9501 14.8957C26.6063 15.294 26.6369 15.1521 25.4342 17.317C24.7874 18.4812 24.4686 19.2164 24.379 19.4751C24.3517 19.5546 24.3824 19.4899 24.4822 19.4819C25.0132 19.4377 26.0401 19.1608 26.4905 19.4479C27.0261 19.7894 27.2213 19.8326 28.6555 20.6427C30.3064 21.5754 31.4875 21.9055 32.5087 22.516C33.6547 23.2024 33.6672 23.2104 33.6672 23.2104C33.8635 23.3511 33.9259 23.4702 33.9826 23.3999C34.4217 22.8609 34.8506 22.2788 35.3158 21.6741C35.5155 21.4142 35.5518 21.3621 35.7924 20.957C36.1623 20.3363 36.2303 20.1366 36.4448 19.609C36.6331 19.1472 36.7148 18.7739 36.7602 18.5561C36.9406 17.721 36.91 17.0561 36.8884 16.6635ZM35.2273 16.8484C35.1876 17.2217 35.1921 17.4305 35.0753 18.1351C35.0004 18.5901 34.7712 19.1495 34.4149 19.3061C34.1857 19.3673 33.9054 19.4071 33.5775 19.339C33.1282 19.2448 32.8502 19.0031 32.7822 18.9419C32.68 18.8488 32.3975 18.5856 32.2999 18.1351C32.216 17.7482 32.3169 17.4453 32.3725 17.2796C32.4361 17.0878 32.4769 16.9732 32.5893 16.9063C32.8559 16.7486 33.2598 17.0152 33.312 17.0504C33.4981 17.1775 33.6207 17.3602 33.8657 17.7255C34.0416 17.9888 34.1074 18.1249 34.1426 18.1113C34.188 18.0943 34.1551 17.8401 34.0586 17.6177C33.9849 17.4475 33.8941 17.342 33.7455 17.1718C33.5299 16.9256 33.4232 16.803 33.2394 16.6896C33.1078 16.609 32.8865 16.4763 32.5768 16.4729C32.494 16.4717 32.225 16.4683 31.9868 16.6294C31.6509 16.8552 31.5862 17.2637 31.517 17.7017C31.475 17.9649 31.4194 18.3405 31.5409 18.8102C31.7008 19.4286 32.0696 19.8269 32.2761 20.0152C32.4962 20.2149 33.0749 20.7391 33.7557 20.6813C33.7126 20.7618 33.6876 20.8049 33.674 20.8288C33.5946 20.9706 33.556 21.0239 33.4289 21.2758C33.303 21.5243 33.2712 21.5073 33.1328 21.7989C33.034 22.0065 32.4327 21.4914 32.2738 21.4131C31.5431 21.058 30.893 20.6971 29.3998 19.9313C28.264 19.3481 27.6513 19.0916 26.8014 18.6366C26.562 18.5084 26.4032 18.1998 26.3374 17.856C26.25 17.3976 26.4474 16.9789 26.5847 16.6907C26.7118 16.4218 26.8434 16.2459 27 16.0383C27.5219 15.3473 28.0722 14.9048 28.4716 14.586C28.6929 14.4101 28.8971 14.2467 29.2023 14.0527C29.6199 13.786 30.0635 13.5035 30.7035 13.3515C30.7897 13.331 31.2005 13.2369 31.7508 13.2527C31.9902 13.2596 32.5938 13.297 33.3018 13.5886C33.6899 13.7486 34.0995 13.9176 34.4875 14.3295C34.5477 14.3931 34.8041 14.6722 35.0015 15.1192C35.3238 15.8533 35.2613 16.5228 35.2273 16.8484Z" fill="#80332C"/>
	<path d="M28.6781 14.2375C28.652 14.1694 29.25 13.4501 30.194 12.9883C30.775 12.7035 31.1653 12.649 31.6861 12.6161C32.0934 12.5911 33.1021 12.4618 34.2163 13.0734C35.0673 13.5408 35.4315 14.1161 35.5847 14.3521C36.0669 15.093 36.0352 15.6842 36.0431 15.9667C36.0477 16.1119 36.0681 16.6951 35.8854 17.6153C35.8083 18.0011 35.7016 18.32 35.393 18.7591C35.2489 18.9633 34.972 19.4194 34.3786 19.525C34.1539 19.5647 33.9066 19.5147 33.8884 19.5057C33.7795 19.4546 34.0813 19.4591 34.2436 19.4467C34.7258 19.4081 34.8676 18.9815 34.9754 18.7761C35.2318 18.2859 35.2375 17.8774 35.3033 17.3986C35.3555 17.0219 35.3964 16.7042 35.3828 16.0393C35.3748 15.666 35.3113 15.1793 34.9005 14.6108C34.5193 14.0832 34.146 13.8222 33.6853 13.6055C33.3529 13.4489 32.7787 13.1857 32.0083 13.1494C31.4943 13.1256 31.0132 13.0586 30.185 13.3843C29.6721 13.5862 29.4361 13.7802 29.4361 13.7802C28.7893 14.1694 28.6895 14.2681 28.6781 14.2375Z" fill="#808285"/>
</svg>
