<svg width="120" height="120" viewBox="0 0 120 120" fill="none" xmlns="http://www.w3.org/2000/svg">
    <path d="M72.7306 20.1961L72.9698 19H71.75H17.5C15.2174 19 13.2178 19.868 11.5429 21.5429C9.86798 23.2178 9 25.2174 9 27.5V92.5C9 94.7826 9.86798 96.7822 11.5429 98.4571C13.2178 100.132 15.2174 101 17.5 101H102.5C104.783 101 106.782 100.132 108.457 98.4571C110.132 96.7822 111 94.7826 111 92.5V43.375V41.3175L109.382 42.5887C108.249 43.479 107.099 44.2657 105.932 44.9498C104.797 45.6148 103.561 46.1457 102.218 46.5406L101.5 46.7518V47.5V91.5H18.5V36.2268L59.4516 63.0862L60.0002 63.446L60.5488 63.086L84.9238 47.086L86.3762 46.1326L84.8222 45.3556C83.8621 44.8755 82.9426 44.3358 82.0633 43.7363C81.1841 43.1368 80.3443 42.477 79.544 41.7567L78.9739 41.2437L78.3306 41.6612L60.0007 53.5574L21.4951 28.5H71.375H72.5172L72.3662 27.3678C72.2083 26.1832 72.1689 24.9998 72.2478 23.8165C72.3282 22.6108 72.489 21.4041 72.7306 20.1961ZM84.5429 35.4571C87.4005 38.3147 90.9063 39.75 95 39.75C99.0937 39.75 102.599 38.3147 105.457 35.4571C108.315 32.5995 109.75 29.0936 109.75 25C109.75 20.9064 108.315 17.4005 105.457 14.5429C102.599 11.6853 99.0937 10.25 95 10.25C90.9063 10.25 87.4005 11.6853 84.5429 14.5429C81.6852 17.4005 80.25 20.9064 80.25 25C80.25 29.0936 81.6852 32.5995 84.5429 35.4571Z" fill="#485365" stroke="#485365" stroke-width="2"/>
    <circle cx="95.1954" cy="24.8045" r="15.2486" fill="#DF5650" stroke="#DF5650"/>
</svg>
