<svg width="5" height="20" viewBox="0 0 5 20" fill="none" xmlns="http://www.w3.org/2000/svg">
    <path d="M0.75 13V13.25H1H4.5H4.75V13V1V0.75H4.5H1H0.75V1V13ZM1.33572 18.6643C1.72429 19.0528 2.20038 19.25 2.75 19.25C3.29962 19.25 3.77571 19.0528 4.16428 18.6643C4.55284 18.2757 4.75 17.7996 4.75 17.25C4.75 16.7004 4.55284 16.2243 4.16428 15.8357C3.77571 15.4472 3.29962 15.25 2.75 15.25C2.20038 15.25 1.72429 15.4472 1.33572 15.8357C0.947157 16.2243 0.75 16.7004 0.75 17.25C0.75 17.7996 0.947157 18.2757 1.33572 18.6643Z" fill="#DF5650" stroke="#DF5650" stroke-width="0.5"/>
</svg>
