<svg width="190" height="190" viewBox="0 0 190 190" fill="none" xmlns="http://www.w3.org/2000/svg">
	<path d="M181.47 94.9786C181.47 142.82 142.687 181.603 94.8457 181.603C47.0046 181.603 8.22168 142.82 8.22168 94.9786C8.22168 47.1375 47.0046 8.35458 94.8457 8.35458C142.687 8.35458 181.47 47.1375 181.47 94.9786Z" fill="#DDDDDD" stroke="#81332C" stroke-width="15" stroke-miterlimit="10"/>
	<path d="M153.546 94.9786C153.546 127.398 127.265 153.679 94.8455 153.679C62.4261 153.679 36.145 127.398 36.145 94.9786C36.145 62.5592 62.4261 36.2781 94.8455 36.2781C127.265 36.2781 153.546 62.5592 153.546 94.9786Z" fill="#DDDDDD" stroke="#81332C" stroke-width="15" stroke-miterlimit="10"/>
	<path d="M126.934 94.9786C126.934 112.7 112.568 127.067 94.8456 127.067C77.1238 127.067 62.7573 112.7 62.7573 94.9786C62.7573 77.2567 77.1238 62.8903 94.8456 62.8903C112.568 62.8903 126.934 77.2567 126.934 94.9786Z" fill="#DDDDDD" stroke="#81332C" stroke-width="15" stroke-miterlimit="10"/>
	<path d="M94.846 100.335C97.8044 100.335 100.203 97.937 100.203 94.9786C100.203 92.0201 97.8044 89.6219 94.846 89.6219C91.8875 89.6219 89.4893 92.0201 89.4893 94.9786C89.4893 97.937 91.8875 100.335 94.846 100.335Z" fill="#DDDDDD" stroke="#81332C" stroke-width="10" stroke-miterlimit="10"/>
</svg>
