<svg width="17" height="23" viewBox="0 0 17 23" fill="none" xmlns="http://www.w3.org/2000/svg">
    <path d="M1.5 22C1.08333 22 0.729167 21.8542 0.4375 21.5625C0.145833 21.2708 0 20.9167 0 20.5V9.65C0 9.23333 0.145833 8.87917 0.4375 8.5875C0.729167 8.29583 1.08333 8.15 1.5 8.15H3.25V5.75C3.25 4.43333 3.7125 3.3125 4.6375 2.3875C5.5625 1.4625 6.68333 1 8 1C9.31667 1 10.4375 1.4625 11.3625 2.3875C12.2875 3.3125 12.75 4.43333 12.75 5.75V8.15H14.5C14.9167 8.15 15.2708 8.29583 15.5625 8.5875C15.8542 8.87917 16 9.23333 16 9.65V20.5C16 20.9167 15.8542 21.2708 15.5625 21.5625C15.2708 21.8542 14.9167 22 14.5 22H1.5ZM4.75 8.15H11.25V5.75C11.25 4.85 10.9333 4.08333 10.3 3.45C9.66667 2.81667 8.9 2.5 8 2.5C7.1 2.5 6.33333 2.81667 5.7 3.45C5.06667 4.08333 4.75 4.85 4.75 5.75V8.15ZM1.5 20.5H14.5V9.65H1.5V20.5ZM8 17C8.53333 17 8.9875 16.8167 9.3625 16.45C9.7375 16.0833 9.925 15.6417 9.925 15.125C9.925 14.625 9.7375 14.1708 9.3625 13.7625C8.9875 13.3542 8.53333 13.15 8 13.15C7.46667 13.15 7.0125 13.3542 6.6375 13.7625C6.2625 14.1708 6.075 14.625 6.075 15.125C6.075 15.6417 6.2625 16.0833 6.6375 16.45C7.0125 16.8167 7.46667 17 8 17Z" fill="#1C2B40" fill-opacity="0.3"/>
    <path d="M0.260723 21.7393C0.599806 22.0784 1.01779 22.25 1.5 22.25H14.5C14.9822 22.25 15.4002 22.0784 15.7393 21.7393C16.0784 21.4002 16.25 20.9822 16.25 20.5V9.65C16.25 9.16779 16.0784 8.74981 15.7393 8.41072C15.4002 8.07164 14.9822 7.9 14.5 7.9H13V5.75C13 4.36752 12.5115 3.18295 11.5393 2.21072C10.567 1.2385 9.38248 0.75 8 0.75C6.61752 0.75 5.43295 1.2385 4.46072 2.21072C3.4885 3.18295 3 4.36752 3 5.75V7.9H1.5C1.01779 7.9 0.599806 8.07164 0.260723 8.41072C-0.0783598 8.74981 -0.25 9.16779 -0.25 9.65V20.5C-0.25 20.9822 -0.07836 21.4002 0.260723 21.7393ZM11 5.75V7.9H5V5.75C5 4.91594 5.29058 4.21297 5.87678 3.62678C6.46297 3.04058 7.16594 2.75 8 2.75C8.83406 2.75 9.53703 3.04058 10.1232 3.62678C10.7094 4.21297 11 4.91594 11 5.75ZM14.25 9.9V20.25H1.75V9.9H14.25ZM8 17.25C8.59743 17.25 9.11469 17.042 9.53728 16.6288C9.95957 16.2159 10.175 15.7101 10.175 15.125C10.175 14.5554 9.95901 14.0424 9.54663 13.5934C9.1264 13.1358 8.6064 12.9 8 12.9C7.3936 12.9 6.8736 13.1358 6.45337 13.5934C6.04099 14.0424 5.825 14.5554 5.825 15.125C5.825 15.7101 6.04043 16.2159 6.46272 16.6288C6.88531 17.042 7.40257 17.25 8 17.25Z" stroke="#1C2B40" stroke-opacity="0.3" stroke-width="0.5"/>
</svg>
