<svg width="246" height="292" viewBox="0 0 246 292" fill="none" xmlns="http://www.w3.org/2000/svg">
	<path d="M123 46.8022L0.782288 169.081L123 291.359L245.218 169.081L123 46.8022Z" fill="#DF5650"/>
	<path d="M60.9587 195.815C62.7844 195.748 65.5479 195.507 68.7345 194.569C74.7593 192.801 79.6306 190.501 81.224 189.372C81.448 189.214 81.2157 189.978 81.1161 190.468C80.8422 191.788 80.975 191.323 80.4024 194.719C80.029 196.96 82.2364 198.787 82.726 199.584C86.867 206.268 90.4105 210.336 94.4022 215.733C108.319 234.53 118.46 248.587 121.929 249.591C122.692 249.807 123.464 248.72 126.178 245.606C128.377 243.09 129.464 241.073 129.87 240.492C134.07 234.431 143.555 224.044 152.584 211.54C157.613 204.582 160.476 199.476 163.264 194.702C163.488 194.32 163.389 193.963 163.206 193.565C163.023 193.166 162.824 192.726 162.667 192.161C162.501 191.572 162.476 191.472 162.451 191.439C162.409 191.373 162.75 192.502 162.393 190.85C162.218 190.052 162.343 189.255 162.343 189.255C163.945 189.812 163.945 189.812 165.372 190.393C167.53 191.256 171.015 193.415 174.924 194.702C181.081 196.72 184.094 196.595 183.04 196.047C181.197 195.092 178.085 189.397 170.177 179.483C160.119 166.888 156.526 161.126 155.306 156.966C154.982 155.87 153.746 159.972 152.327 165.41C151.032 170.367 149.571 171.703 146.327 182.331C143.903 190.26 144.675 187.13 142.509 193.066C138.368 204.4 138.368 204.732 133.854 216.63C131.431 223.014 128.41 229.565 126.327 236.066C126.111 236.739 126.053 240.317 123.481 244.959C122.759 246.262 121.099 247.424 121.14 247.034C121.306 245.573 119.29 244.269 117.713 240.674C113.655 231.408 106.053 214.894 99.7299 197.018C93.5723 179.616 89.1408 157.663 87.9458 157.921C87.6554 157.987 88.3442 159.498 87.1824 161.292C85.1077 164.497 83.8546 166.215 83.1907 167.187C80.0621 171.795 79.4895 171.861 73.3901 179.915C70.527 183.709 66.7761 189.413 60.9587 195.815Z" fill="#1A2D42"/>
	<path d="M89.3151 154.251C89.2321 154.492 88.4106 156.974 88.3276 160.37C88.2363 163.874 88.9748 166.531 89.34 167.801C98.3772 198.903 105.141 213.998 105.141 213.998C112.535 230.487 120.941 247.175 120.941 247.175C121.115 247.483 121.771 249.193 122.095 249.625C122.111 249.65 122.153 249.608 122.186 249.55C122.302 249.326 122.526 248.811 122.584 248.653C123.115 247.167 123.63 245.897 124.709 243.663C125.962 240.683 126.725 238.408 127.439 236.473C130.642 227.83 140.941 203.644 148.509 182.372C149.223 180.355 151.173 173.821 153.779 165.319C154.941 161.541 155.073 159.465 154.965 157.888C153.812 140.718 92.7009 144.387 89.3151 154.251Z" fill="white"/>
	<path d="M70.0125 110.371L83.7965 114.074L83.3401 139.721L78.9667 138.999L74.7593 136.425L72.2366 131.277L70.2864 124.369L67.0914 119.388L66.5935 117.188L67.4898 113.866" fill="white"/>
	<path d="M67.9877 109.881C67.1661 110.645 66.859 112.123 66.2532 115.087C65.9462 116.59 65.7968 117.354 65.9213 118.142C66.0873 119.147 66.6931 120.11 67.9047 122.028C68.8839 123.581 69.2573 123.929 69.7221 125.083C69.9046 125.532 69.9295 125.681 70.3859 126.902C70.9337 128.371 71.0166 128.479 71.2158 129.052C71.7635 130.671 71.4814 130.97 71.8797 132.357C72.3361 133.942 73.1328 135.022 73.6141 135.661C74.2282 136.483 75.0332 137.546 76.502 138.301C77.3236 138.725 78.0622 138.808 78.4356 138.974C81.282 140.228 81.058 139.547 81.2903 139.555C81.7965 139.555 81.1326 139.555 78.9999 138.617C76.668 137.587 76.6929 137.405 76.1784 137.073C75.1162 136.392 73.0664 133.345 74.029 130.547C74.8755 128.097 73.1577 127.325 72.7925 126.827C71.9295 125.656 71.9295 125.656 70.7262 123.772C70.1868 122.916 69.4316 121.729 68.7428 120.135C68.1204 118.699 67.8051 117.985 67.7553 117.329C67.4565 113.443 74.2614 110.969 73.6971 109.483C73.3154 108.478 69.8133 108.196 67.9877 109.881Z" fill="#1A2D42"/>
	<path d="M174.799 114.63L175.67 121.223L172.517 126.96L169.729 136.209L165.662 139.181L160.011 137.737L161.314 114.298" fill="#495366"/>
	<path d="M162.16 117.611C162.55 119.413 162.857 121.671 162.824 124.261C162.791 126.196 162.584 127.516 162.476 128.371C161.571 135.429 162.31 138.575 162.401 138.567C162.451 138.559 163.704 139.937 163.646 135.686C163.629 134.723 163.629 133.702 164.277 132.772C164.932 131.825 165.521 132.033 166.135 131.111C166.857 130.024 166.758 128.654 166.667 127.333C166.584 126.154 166.343 125.424 166.451 125.391C166.691 125.316 167.886 129.085 168.301 128.977C168.6 128.903 168.376 126.794 168.119 125.349C167.787 123.473 167.455 122.941 167.43 122.435C167.372 121.015 169.72 118.873 180.766 115.793" fill="#1A2B40"/>
	<path d="M82.3941 141.581C82.2696 140.85 82.0704 139.746 81.8796 138.285C81.3153 133.909 81.4646 133.311 81.4729 131.51C81.4729 130.414 81.6472 129.06 81.697 126.952C81.78 123.448 82.3858 121.09 82.56 120.509C83.9957 115.602 84.809 115.56 84.5683 114.439C83.4563 109.175 65.3736 108.702 65.274 109.333C65.2325 109.566 67.6225 109.79 67.913 111.085C68.2117 112.422 65.9545 111.359 66.3611 112.513C66.4358 112.721 66.3114 114.58 67.7802 115.062C70.8507 116.067 72.22 115.926 73.9959 117.03C75.0581 117.694 75.8299 118.707 75.9461 118.915C76.6182 120.085 76.5933 121.239 76.585 121.912C76.5602 123.381 76.0788 124.652 75.7552 125.523C75.3983 126.47 75.083 127.026 75.1992 127.109C75.4066 127.25 76.8755 125.822 77.1079 125.316C77.1162 125.308 77.1245 125.274 77.1411 125.274C77.2572 125.283 77.1825 126.794 77.3485 128.67C77.4896 130.306 77.6888 130.688 77.9211 130.97C78.3361 131.468 78.6597 131.41 79.0663 131.917C79.5642 132.539 79.5394 133.204 79.614 134.109C79.6389 134.416 79.5642 133.395 80.2613 137.479C80.668 139.871 80.7177 140.336 80.892 141.357C81.0912 142.503 81.4563 144.595 82.1783 146.754C82.726 148.406 83.5559 149.958 85.2073 153.064C86.1534 154.84 86.8587 156.169 87.9707 157.937C87.9707 157.937 89.5973 160.536 91.3649 162.811C91.3649 162.811 98.593 172.127 116.568 179.724C116.941 179.882 117.547 180.122 118.335 180.313C120.236 180.77 121.804 180.621 122.858 180.504C124.568 180.322 125.92 179.923 126.833 179.608C130.244 178.437 132.26 176.826 133.771 175.88C141.273 171.18 140.642 171.986 145.455 168.133C149.447 164.937 152.185 162.139 153.928 160.187C155.521 158.402 156.799 156.7 158.185 154.409C159.405 152.391 160.409 150.797 161.563 147.194C162.949 142.885 162.808 141.963 162.874 141.332C162.974 140.352 162.725 139.107 163.223 138.833C163.455 138.708 163.704 138.899 164.135 139.065C165.679 139.63 167.256 138.924 167.538 138.8C168.6 138.326 169.164 137.554 169.754 136.74C169.969 136.45 170.733 135.362 171.173 133.677C171.53 132.323 171.297 132.025 171.629 130.522C171.911 129.26 172.318 128.355 172.625 127.691C173.563 125.648 174.276 125.249 175.596 123.016C175.812 122.651 175.845 122.568 177.139 119.944C179.762 114.614 180.26 113.642 179.994 113.443C179.67 113.194 178.343 114.29 177.554 115.145C175.272 117.603 174.641 121.007 174.6 121.281C174.542 121.621 174.451 122.244 174.135 123.041C174.002 123.373 173.837 123.738 172.998 125.059C171.969 126.694 171.837 126.752 171.571 127.358C171.297 127.981 171.206 128.496 171.015 129.509C170.583 131.892 170.891 132.124 170.5 133.37C170.077 134.723 169.347 135.628 168.932 136.126C168.052 137.189 167.38 138.003 166.276 138.227C165.231 138.443 163.795 138.127 163.272 138.011C162.592 137.861 161.978 137.654 161.804 137.903C161.679 138.077 161.87 138.368 162.019 138.775C162.235 139.364 162.21 139.887 162.169 140.917C162.069 143.009 160.609 146.255 160.384 146.745C159.455 148.779 158.642 150.374 158.053 151.486C156.584 154.276 155.853 155.662 154.858 157.132C154.31 157.937 152.907 159.947 150.725 162.238C149.264 163.766 148.011 164.837 147.464 165.285C146.866 165.784 145.464 166.24 141.638 168.789C138.957 170.574 137.779 171.77 135.215 173.148C131.655 175.058 131.945 174.568 128.609 176.394C125.688 177.997 125.032 178.204 123.265 178.578C122.684 178.703 120.767 179.475 117.796 178.777C114.858 178.088 113.298 176.768 107.248 172.824C105.73 171.828 104.8 171.554 98.9415 167.029C94.037 163.243 92.8254 162.388 91.3981 160.686C90.4354 159.54 89.0164 157.854 87.0413 154.342C84.4189 149.684 84.4521 148.821 83.921 147.401C83.2986 145.757 82.5849 142.702 82.3941 141.581Z" fill="#1A2B40"/>
	<path d="M84.5434 117.611C84.1782 118.292 84.4189 116.075 83.9376 117.237C83.5061 118.275 81.9791 124.975 81.5808 129.658C81.2903 133.12 81.4231 136.79 82.8754 144.196C83.6471 148.124 84.5766 149.867 85.2903 151.511C85.7882 152.649 86.8089 155.405 90.9914 160.212C92.4686 161.906 92.6096 162.122 99.5307 167.818C106.062 173.198 110.178 174.8 113.232 176.893C116.51 179.134 119.447 179.076 120.128 179.118C122.277 179.242 124.684 178.869 130.136 176.112C131.721 175.307 135.522 173.912 144.011 167.818C150.941 162.844 152.111 160.901 153.148 159.656C155.663 156.626 157.231 154.492 158.434 152.632C159.837 150.473 160.766 147.227 161.447 144.014C161.779 142.428 161.978 140.369 162.21 137.33C162.6 132.033 162.633 132.971 162.741 129.891C162.849 126.852 162.716 124.212 162.326 121.754C162.152 120.666 162.152 121.53 161.928 120.94" fill="white"/>
	<path d="M72.054 111.434C70.8922 112.845 70.2366 114.697 70.3362 116.573C70.3777 117.52 70.5021 118.466 70.7677 119.388C71.0249 120.309 71.3901 121.198 71.8548 122.045C71.332 121.239 70.8922 120.367 70.5685 119.454C70.2366 118.541 70.0374 117.578 69.9212 116.606C69.6723 114.647 70.22 112.571 71.3984 110.927L72.054 111.434Z" fill="#4A5366"/>
	<path d="M83.2073 116.341C87.7135 117.295 91.4893 117.968 94.1947 118.416C108.991 120.849 120.51 121.297 126.518 121.555C136.642 121.995 142.766 121.414 148.061 121.223C159.181 120.808 157.762 119.853 159.472 119.629C163.53 119.089 163.272 120.509 163.272 123.73C163.272 128.164 162.442 130.962 162.451 136.101C162.467 141.739 161.231 146.513 159.712 150.1C157.14 156.161 153.156 160.353 150.401 162.844C146.899 166.024 143.97 168.158 138.036 172.077C135.572 173.704 132.31 175.066 128.078 177.241C124.924 178.86 121.057 179.267 120.684 179.151C120.294 179.026 121.547 178.412 122.734 177.125C123.613 176.17 124.559 175.149 125.149 173.762C125.464 173.032 126.385 170.873 125.464 168.922C124.792 167.494 123.331 166.605 123.149 166.506C122.144 165.908 121.539 165.966 121.049 165.244C120.792 164.87 120.078 164.272 119.115 164.073C118.808 164.007 120.676 163.276 120.842 163.035C121.14 162.579 121.497 162.736 122.103 162.197C122.244 162.072 123.115 161.267 123.049 160.304C122.983 159.399 122.103 158.519 122.103 158.519C121.663 157.697 121.223 156.601 121.68 155.887C121.945 155.463 122.285 155.555 122.626 155.148C123.339 154.309 122.642 153.055 122.626 151.362C122.609 150.141 122.958 149.452 123.364 148.207C125.074 142.976 124.792 137.305 124.734 136.01C124.584 133.013 124.119 131.983 123.788 131.385C122.46 129.011 120.169 128.064 119.796 127.915C117.157 126.869 116.286 128.222 111.282 128.122C109.589 128.089 107.755 128.338 104.186 127.798C101.962 127.466 100.759 127.151 99.4062 126.437C96.1946 124.768 94.4851 123.531 91.5806 124.253C88.6512 124.984 89.0495 124.901 87.8877 125.432C84.7176 126.877 81.4563 130.696 81.4563 130.58C81.4563 130.464 81.5227 130.181 81.4978 129.891C81.3069 126.976 82.2364 103.729 86.4023 108.644C92.6262 115.975 108.584 124.818 122.518 120.127C124.344 119.512 125.505 122.094 126.509 122.858" fill="#495366"/>
	<path d="M227.172 86.6002C225.836 110.18 177.513 126.611 119.248 123.298C60.9836 119.986 14.8433 98.1825 16.1794 74.5944C17.5155 51.0146 65.8383 34.5835 124.103 37.8963C142.302 38.9341 156.028 40.6777 166.899 44.0403C188.16 50.6078 228.184 68.7161 227.172 86.6002Z" fill="#1A2D42"/>
	<path d="M102.834 177.656C104.419 177.656 106.228 178.271 107.207 178.686C110.634 180.147 111.771 181.741 115.73 183.037C116.867 183.41 117.738 183.659 118.037 183.659C119.763 183.676 122.651 183.701 126.294 183.659C129.032 183.626 131.356 182.24 135.97 180.371C141.024 178.329 141.962 177.955 142.551 178.387C143.737 179.259 143.09 181.467 143.123 184.332C143.157 187.221 142.343 190.194 142.111 192.958C141.962 194.752 141.538 196.097 141.306 196.72C141.123 197.209 140.551 197.799 139.762 198.173C138.592 198.729 137.53 198.006 136.352 197.284C133.256 195.391 131.24 193.706 129.522 192.253C128.244 191.165 127.871 190.642 126.418 190.218C125.688 190.011 124.667 190.086 123.016 190.052C120.227 189.994 119.738 189.969 118.618 190.102C117.132 190.268 117.057 190.783 115.257 191.954C113.564 193.058 113.265 193.058 111.248 194.187C108.078 195.964 107.638 196.67 105.522 197.342C104.361 197.708 102.659 196.952 102.327 195.831C102.02 194.802 102.153 193.822 102.153 192.992C102.153 189.04 101.979 188.932 102.112 183.626C102.145 182.04 101.755 179.516 102.834 177.656Z" fill="#1A2D42"/>
	<path d="M27.2166 74.9514C26.5195 73.7309 26.0963 72.3361 25.9884 70.908C25.8639 69.4716 26.1295 68.0103 26.6025 66.657C27.0755 65.2954 27.756 63.9918 28.6274 62.8377C29.4987 61.6753 30.5277 60.6541 31.5983 59.7159C33.7227 57.8229 36.1127 56.2288 38.5442 54.7841C40.9923 53.356 43.5151 52.0525 46.1623 50.9897C51.4652 48.9306 56.9754 47.6271 62.4442 46.3568C65.1745 45.7092 67.9296 45.1197 70.693 44.5883C73.4731 44.0818 76.2116 43.5338 79.0829 43.2183L79.1659 44.5634C76.4357 44.6879 73.6557 45.2276 70.9254 45.7839C68.1869 46.3568 65.4649 46.9961 62.7264 47.6188C57.2742 48.9057 51.7888 50.1262 46.652 52.2351C44.096 53.273 41.6064 54.535 39.1915 55.9216C36.7683 57.2915 34.4613 58.8192 32.3202 60.5877C30.1792 62.3147 28.2954 64.3654 27.2498 66.9144C26.7353 68.1847 26.3618 69.5215 26.3701 70.8997C26.3784 72.2614 26.6772 73.6479 27.2166 74.9514Z" fill="white"/>
	<path d="M72.4938 63.668C72.5768 64.4651 70.4606 68.2594 69.4565 68.6912C68.1951 69.2309 64.3944 70.4929 65.2076 74.8103C65.7719 77.8076 89.1076 94.8199 123.688 94.4878C135.406 94.3715 147.961 94.795 168.003 85.1472C175.206 81.6766 177.621 75.6239 178.318 73.6562C179.123 71.3812 176.334 67.6035 173.28 67.1219C172.102 66.9393 165.33 66.3166 172.783 64.6477C173.961 64.3821 178.534 65.4614 179.571 66.5657C179.811 66.8231 181.82 67.2382 182.235 72.2281C182.791 78.8786 173.928 86.2266 169.488 89.0412C164.26 92.3457 154.708 95.7581 136.684 97.8255C127.157 98.9215 112.667 99.3947 93.0246 95.152C93.0246 95.152 68.7262 89.5726 61.5064 76.8029C59.7222 73.6562 60.1206 71.5639 60.328 70.7918C61.5562 66.2668 72.278 61.6587 72.4938 63.668Z" fill="white"/>
	<path d="M33.3244 69.6045C33.1418 68.4919 33.0588 67.3212 33.341 66.1837C33.5982 65.038 34.2621 64.0333 34.9592 63.12C35.6812 62.215 36.5027 61.4014 37.3824 60.6458C38.2621 59.8986 39.1998 59.2011 40.2371 58.6532C44.2703 56.5028 48.5191 54.7841 52.8427 53.3394C55.0087 52.617 57.1995 51.9944 59.4235 51.4381C59.9795 51.3052 60.5355 51.1724 61.1081 51.0561L62.7679 50.7074L66.0873 49.9768C70.5188 49.0054 75.0249 48.117 79.6223 48.0173L79.6721 48.8476C75.1992 49.3458 70.7843 50.2757 66.3446 51.189L63.0085 51.8864L61.3322 52.2185C60.7928 52.3265 60.2451 52.451 59.6974 52.5839C57.5065 53.1069 55.3323 53.7296 53.183 54.3939C48.876 55.7472 44.652 57.3579 40.6355 59.4087C38.6687 60.3884 36.9011 61.8331 35.399 63.4771C34.6605 64.3073 33.9717 65.204 33.6314 66.2585C33.2663 67.3212 33.2414 68.4753 33.3244 69.6045Z" fill="white"/>
	<path d="M165.347 34.9405C164.774 31.9432 163.82 26.5962 159.596 22.2373C157.455 20.0205 153.671 17.2473 148.816 16.0102C145.381 15.1384 144.833 15.9023 141.87 14.8146C140.451 14.2916 138.808 13.4613 133.248 8.58758C127.389 3.44818 127.746 3.06625 125.821 2.11974C121.962 0.21011 118.219 0.567126 114.568 0.924144C107.431 1.61327 102.394 4.50263 101.157 5.23327C96.2113 8.18075 93.7134 11.5932 88.701 18.4097C85.6305 22.586 82.3028 27.194 79.8381 33.9857C78.8008 36.8335 79.3153 36.2274 77.2074 43.0938C74.917 50.5247 74.4191 50.915 72.6598 56.9926C71.2407 61.8995 68.9254 72.0538 68.9171 72.0538C69.0499 72.0704 165.256 89.5228 175.662 68.7659C178.417 63.2695 170.459 61.8165 165.347 34.9405Z" fill="#1A2D42"/>
	<path d="M125.049 2.15294C125.688 2.50166 126.443 3.03303 126.617 3.19079C130.26 6.63643 133.007 9.61711 136.543 12.0415C138.833 13.6107 141.638 14.5905 142.551 14.7482C147.605 15.6366 149.14 16.0268 152.385 17.7289C152.7 17.895 152.625 18.1523 152.634 18.252C152.791 20.3526 143.729 23.1755 135.522 23.6238C130.601 23.8895 126.227 24.0639 123.024 20.9836C120.136 18.2105 119.788 14.3248 119.771 12.7556C119.721 8.52115 122.775 0.924135 125.049 2.15294Z" fill="#18273A"/>
	<path d="M100.676 12.8884C100.186 13.918 99.5805 15.4789 99.3232 17.4549C99.29 17.704 99.207 18.3931 99.1904 19.2815C99.1739 20.2197 99.1655 23.0842 100.585 26.2392C100.585 26.2392 101.68 28.6636 103.697 30.7808C110.551 37.9544 125.929 37.9627 125.929 37.9627C141.298 37.971 153.563 32.0594 153.521 31.91C153.505 31.8436 151.073 32.6905 145.281 33.9608C140.542 34.9986 137.372 35.6878 133.074 36.0946C129.306 36.4516 125.456 36.4848 120.568 36.0697C118.36 35.887 114.659 34.7911 110.958 33.3547C109.033 32.6074 106.775 31.3122 104.41 28.9542C103.174 27.7254 101.539 26.0068 100.692 23.2835C100.178 21.6312 100.161 20.2363 100.128 18.6007C100.103 16.2012 100.402 14.2252 100.676 12.8884Z" fill="white"/>
	<path d="M86.3442 38.0623C86.5185 38.0623 86.477 37.9129 87.6969 37.9793C87.6969 37.9793 88.6429 38.1121 88.9666 38.4027C94.1615 43.1104 90.0869 52.4178 85.3152 66.7898C84.8919 68.0768 84.643 68.8406 83.6305 68.8489C82.1036 68.8655 81.2488 68.4836 80.726 67.9854C80.5269 67.8028 80.0787 67.2714 79.7468 66.2335C79.0414 64.0582 79.1659 61.1025 79.1659 61.1025C78.9916 58.2878 79.4065 55.8053 79.5061 54.5101C79.7219 51.7619 80.4024 49.5699 80.9418 48.0505C81.1493 47.4693 80.9418 48.0505 81.3982 46.2489C81.7799 44.7378 82.8339 43.0855 83.6637 40.7275C83.6637 40.7192 83.6388 40.7109 84.1119 39.8889C84.8006 38.685 85.3401 38.6684 86.3442 38.0623Z" fill="white"/>
	<path d="M42.7599 64.8719C43.4321 63.8424 44.2619 62.9291 45.2495 62.1486C46.2453 61.3931 47.349 60.8119 48.4776 60.322C49.6062 59.8321 50.7432 59.3838 51.8967 58.9686C53.0336 58.5618 54.2618 58.155 55.3987 57.9142L55.4236 57.9059C58.5356 57.1005 61.689 56.4695 64.8508 55.9299C66.4275 55.6476 68.0209 55.44 69.6142 55.2407L74.3859 54.618L74.4772 55.44L69.7387 56.1042C68.162 56.3284 66.5769 56.5276 65.0002 56.7933C61.855 57.3164 58.7181 57.9225 55.6393 58.7113L55.6642 58.703C54.4194 58.9687 53.3323 59.334 52.1705 59.7325C51.0336 60.1393 49.905 60.5794 48.793 61.0526C47.6893 61.5342 46.5773 61.9908 45.5399 62.5803C44.5192 63.1864 43.598 63.9918 42.7599 64.8719Z" fill="white"/>
	<path d="M220.118 98.5645C216.807 102.292 212.616 105.14 208.317 107.639C203.985 110.097 199.338 112.081 194.591 113.543C189.869 115.112 185.056 116.407 180.202 117.511C177.77 118.059 175.33 118.541 172.874 118.956C171.646 119.164 170.418 119.355 169.181 119.521L165.355 120.019L165.513 119.205C165.513 119.213 165.687 119.197 165.82 119.172L166.277 119.089C166.451 119.064 166.617 119.031 166.766 119.039L167.223 118.981L169.057 118.724C170.276 118.541 171.496 118.342 172.716 118.117C175.148 117.677 177.571 117.163 179.978 116.598C184.791 115.461 189.562 114.107 194.276 112.604C196.633 111.841 198.981 111.085 201.263 110.155C203.546 109.225 205.786 108.179 207.96 107.017C210.151 105.871 212.284 104.609 214.325 103.222C216.392 101.844 218.35 100.308 220.118 98.5645Z" fill="white"/>
	<path d="M37.233 99.9925C40.9342 102.193 44.8097 104.086 48.7764 105.763C52.7265 107.473 56.8095 108.852 60.8924 110.213C64.9753 111.558 69.1412 112.654 73.3071 113.709C77.4813 114.763 81.6472 115.809 85.8878 116.507L85.7467 117.271C81.4895 116.507 77.3153 115.369 73.1577 114.265C69.0001 113.144 64.8425 111.982 60.7679 110.57C56.7016 109.15 52.6353 107.706 48.7017 105.937C44.7516 104.202 40.901 102.251 37.233 99.9925Z" fill="white"/>
	<path d="M84.7758 116.714C85.5392 116.847 86.311 116.98 87.0745 117.113C92.3275 118.009 107.066 120.467 123.298 121.264C140.518 122.111 155.455 120.924 166.442 119.504" stroke="#4A5366" stroke-miterlimit="10"/>
	<path d="M114.07 163.567C115.331 163.691 116.601 163.575 117.871 163.475C118.51 163.409 119.149 163.351 119.763 163.218C120.36 163.077 120.991 162.869 121.588 162.612L121.754 164.671C121.082 164.48 120.46 164.397 119.779 164.281C119.124 164.156 118.493 164.048 117.871 163.965L114.07 163.608V163.567Z" fill="#4A5366"/>
	<path d="M112.12 163.89C112.028 163.625 112.252 163.293 112.543 163.235C112.8 163.185 113.124 163.342 113.165 163.616C113.207 163.89 112.958 164.131 112.709 164.173C112.485 164.214 112.203 164.115 112.12 163.89Z" fill="#4A5366"/>
	<path d="M108.775 183.236L115.074 185.984L114.734 186.665L108.759 183.277L108.775 183.236Z" fill="white"/>
	<path d="M109.489 188.384L114.07 188.068V188.732L109.489 188.417V188.384Z" fill="white"/>
	<path d="M108.767 191.738L116.07 189.081L116.261 189.704L108.767 191.738Z" fill="white"/>
	<path d="M126.136 184.124C126.103 185.544 126.045 185.403 126.053 186.931C126.061 188.018 126.161 189.023 126.161 190.31C126.161 191.182 124.136 191.065 122.667 191.04C121.198 191.016 118.618 191.73 118.618 190.102C118.618 188.956 118.634 187.852 118.618 186.765C118.593 185.353 118.618 184.091 118.618 183.668C118.618 183.186 119.057 183.419 119.63 183.369C120.377 183.294 121.356 183.261 122.12 183.269C126.07 183.327 126.161 183.045 126.136 184.124Z" stroke="white" stroke-miterlimit="10"/>
	<path d="M134.576 191.921L127.904 189.322L128.244 188.566L134.576 191.921Z" fill="white"/>
	<path d="M135.746 187.404L128.526 187.728V187.088L135.746 187.404Z" fill="white"/>
	<path d="M131.323 184.788L128.194 186.225L127.962 185.519L131.323 184.788Z" fill="white"/>
	<path d="M86.9251 167.627C88.5682 174.933 90.4852 182.181 92.676 189.338C94.8337 196.512 97.1905 203.627 100.228 210.469C103.273 217.302 106.692 223.977 110.244 230.562C113.862 237.104 117.356 243.771 122.111 249.558C120.725 248.28 119.63 246.744 118.51 245.241C117.431 243.713 116.352 242.169 115.423 240.533C113.547 237.287 111.713 234.015 109.945 230.719C106.41 224.119 103.016 217.427 99.9788 210.569C96.9581 203.702 94.6179 196.562 92.4852 189.388C90.3358 182.215 88.5018 174.941 86.9251 167.627Z" fill="white"/>
	<path d="M156.185 167.627C155.272 171.222 154.144 174.767 153.024 178.304C151.887 181.841 150.717 185.361 149.538 188.882C148.36 192.402 147.173 195.922 145.87 199.401C144.576 202.88 143.198 206.334 141.787 209.771L137.497 220.05C136.767 221.761 136.078 223.479 135.289 225.165C134.509 226.85 133.688 228.519 132.866 230.18C131.207 233.501 129.53 236.814 127.945 240.168L126.767 242.684C126.393 243.53 125.962 244.386 125.464 245.158C124.534 246.785 123.248 248.155 122.12 249.625C123.223 248.138 124.277 246.594 125.157 244.975C126.045 243.356 126.758 241.654 127.58 239.985C129.19 236.639 130.875 233.326 132.543 230.014C133.372 228.353 134.202 226.692 134.982 225.015C135.771 223.338 136.468 221.619 137.206 219.917L141.538 209.655C142.957 206.226 144.352 202.789 145.654 199.31C146.966 195.839 148.161 192.327 149.38 188.815C150.592 185.303 151.787 181.791 152.949 178.271C154.086 174.742 155.239 171.214 156.185 167.627Z" fill="white"/>
	<path d="M120.062 193.191C120.169 197.168 120.252 201.137 120.294 205.114C120.352 209.091 120.344 213.059 120.369 217.036L120.31 228.959C120.261 232.936 120.203 236.905 120.062 240.882C119.929 236.905 119.871 232.936 119.813 228.959L119.754 217.036C119.779 213.059 119.771 209.091 119.829 205.114C119.871 201.137 119.954 197.16 120.062 193.191Z" fill="#020304"/>
	<path d="M124.7 193.191C124.8 197.085 124.875 200.979 124.908 204.881C124.958 208.775 124.949 212.669 124.974 216.571L124.924 228.262L124.842 234.107L124.7 239.952L124.559 234.107L124.476 228.262L124.427 216.571C124.451 212.677 124.443 208.783 124.493 204.881C124.526 200.979 124.609 197.085 124.7 193.191Z" fill="#020304"/>
</svg>
