<svg width="300" height="304" viewBox="0 0 300 304" fill="none" xmlns="http://www.w3.org/2000/svg">
	<g clip-path="url(#clip0_820_490)">
		<g clip-path="url(#clip1_820_490)">
			<path d="M150 299.849C232.76 299.849 299.849 232.76 299.849 150C299.849 67.2405 232.76 0.150635 150 0.150635C67.2405 0.150635 0.150604 67.2405 0.150604 150C0.150604 232.76 67.2405 299.849 150 299.849Z" fill="#495366"/>
			<path d="M150 282.982C223.444 282.982 282.982 223.444 282.982 150C282.982 76.5561 223.444 17.0181 150 17.0181C76.5561 17.0181 17.0181 76.5561 17.0181 150C17.0181 223.444 76.5561 282.982 150 282.982Z" fill="#DF5650"/>
			<path d="M19.8795 153.313C19.9819 153.301 20.0542 155.75 19.8795 167.506H23.2229L23.1928 165.663H24.3976V167.506V169.271H27.3735L27.4097 172.289H28.5151V179.651H29.7591V167.404L32.2289 167.47V145.298L34.3374 145.181V143.431H56.8464V181.624H58.8193V135.027L60.241 134.94V130.723H61.747V127.241H62.6597L62.6506 123.795H63.9036L63.8554 120.482H65.0603V116.566H65.9639V108.455L66.8675 98.494L68.3735 108.133V116.566H69.2771V120.482H70.4819V123.816L71.3856 123.795V127.41H72.5904V131.325H74.3976V184.837H76.6687L76.8072 138.554H79.5181V134.036L98.494 134.337V138.449L101.807 138.554V230.361L225.301 226.807L230.12 125H232.229V123.193H235.542V119.919L256.024 119.88V123.494H258.434V126.855L262.048 126.807V147.59H272.289V150H275.223L275.301 166.868H278.012V164.428H280.235L280.121 162.651C280.666 162.554 281.855 162.295 281.928 162.952C282.229 165.663 285.738 160.066 285.241 161.145C281.735 168.741 278.557 185.28 276.506 196.386C274.322 208.205 269.539 216.69 265.361 224.096C255.497 241.59 243.503 251.901 240.361 254.518C228.003 264.813 216.624 269.337 205.12 273.795C192.036 278.868 161.949 290.127 125.904 284.337C113.955 282.419 104.452 279.124 100.602 277.711C84.7621 271.892 73.8554 264.548 69.8795 261.747C54.4398 250.864 44.1446 238.431 37.6506 228.916C32.2169 220.648 28.741 213.042 26.506 207.229C21.0151 192.943 16.9789 181.443 16.5663 175.602C15.735 163.798 8.13255 154.819 19.8795 153.313Z" fill="#495366"/>
			<path d="M98.494 292.771L100.301 283.735L102.711 272.289L105.422 260.241C104.952 260.063 104.313 259.783 103.614 259.337C103.367 259.181 102.877 258.867 102.41 258.434C101.169 257.28 100.72 255.846 100.602 255.422C100.319 254.404 100.31 253.38 100.301 252.108C100.301 251.982 100.301 251.88 100.301 251.807L97.2892 249.699L92.1687 246.084C90.9277 244.892 89.9127 243.858 89.1566 243.072C87.9548 241.819 87.7139 241.509 87.0482 240.964C85.6807 239.846 85.2801 240.006 83.4337 238.855C82.3524 238.181 80.7018 237.13 79.2169 235.241C78.3253 234.105 77.8434 233.111 77.7109 232.831C77.4217 232.217 76.9096 230.997 76.506 227.41C76.2229 224.898 76.0602 223.458 76.2048 221.386C76.25 220.75 76.4127 218.768 77.1084 216.265C77.5964 214.506 78.4759 212.042 80.1205 209.337V208.434C79.9307 208.229 79.7018 207.931 79.5181 207.53C79.1717 206.774 79.1837 206.081 79.2169 205.723C79.1687 205.358 79.1356 204.834 79.2169 204.217C79.2169 204.217 79.3795 202.991 80.1205 201.807C81.4187 199.729 83.8283 198.949 84.3374 198.795C84.3313 198.578 84.3283 198.268 84.3374 197.892C84.3584 197.054 84.3886 195.973 84.6386 195.181C84.9518 194.19 85.6506 193.614 87.0482 192.47C87.6627 191.967 88.5633 191.304 89.759 190.663L91.2651 189.759C91.0813 189.313 90.8584 188.699 90.6627 187.952C90.5633 187.566 90.4368 187.072 90.3615 186.446C90.238 185.398 90.3283 184.56 90.3615 184.337C90.6807 182.111 93.8072 180.22 93.9759 180.12C93.9759 180.015 93.9759 178.723 93.9759 178.614C93.9759 175.684 93.9759 175.684 93.9759 175.602C93.997 174.38 94.3012 173.861 95.4819 170.482C97.0783 165.913 96.7801 166.123 97.2892 165.361C98.4006 163.69 99.3946 163.322 100 161.446C100.268 160.62 100.208 160.274 100.602 159.337C101.157 158.024 101.904 157.193 102.41 156.627C103.642 155.244 104.783 153.783 106.024 152.41C110.13 147.864 109.515 147.792 110.843 146.988C111.666 146.491 113.298 145.955 116.566 144.88C117.961 144.422 118.69 144.22 119.88 143.675C121.777 142.807 121.699 142.506 123.193 141.867C124.916 141.133 126.527 140.889 128.012 140.663C129.105 140.497 129.943 140.44 131.325 140.06C132.22 139.813 132.864 139.566 133.133 139.458C134.407 138.949 134.533 138.705 135.542 138.253C136.166 137.973 136.205 138.027 139.759 137.048C140.898 136.735 141.166 136.654 141.566 136.446C142.654 135.88 143.289 135.114 143.675 134.639C144.41 133.732 145.611 132.253 145.181 131.024C145.003 130.521 144.651 130.337 143.976 129.819C143.494 129.449 142.651 128.569 140.964 126.807C138.967 124.723 137.97 123.681 137.349 122.289C137.099 121.729 136.883 120.81 136.446 118.976C136.072 117.398 135.846 116.16 135.542 114.458C135.377 113.539 135.166 112.31 134.94 110.843C134.554 110.666 134.012 110.383 133.434 109.94C132.834 109.482 132.105 108.789 131.325 107.53C130.087 105.533 129.669 103.63 129.217 101.506C129.009 100.533 128.771 99.2018 128.614 97.5904C127.825 97.5753 126.675 97.512 125.301 97.2892C124.208 97.1114 123.425 96.9066 122.59 96.6867C118.681 95.6536 116.708 95.1295 115.964 94.8795C112.714 93.7831 111.867 93.1325 111.446 92.7711C110.717 92.1506 109.72 91.2711 109.337 89.759C108.831 87.756 109.78 86.1114 109.94 85.8434C110.072 85.6205 110.506 84.9337 111.747 84.0361C113.404 82.8373 114.75 82.5271 117.47 81.6265C119.943 80.8072 119.301 80.9066 121.687 80.1205C123.922 79.3825 126.864 78.509 130.422 77.7108C130.5 76.9217 130.605 75.7771 130.723 74.3976C130.867 72.7018 130.958 71.4367 131.024 70.4819C131.467 64.2229 131.488 63.8133 131.627 62.0482C131.877 58.8765 132.006 57.2651 132.229 56.0241C132.512 54.4578 132.711 53.9217 133.133 51.506C133.56 49.0512 133.461 48.9819 133.735 48.1928C133.979 47.494 134.711 45.4759 136.747 43.9759C138.34 42.8012 139.931 42.5331 140.361 42.4699C141.187 42.3494 141.873 42.3886 146.084 43.3735C149.355 44.1386 149.196 44.1747 150 44.2771C151.28 44.4398 153.383 44.6837 155.723 43.9759C156.819 43.6446 156.756 43.4699 159.337 42.1687C161.756 40.9488 163.06 40.2892 164.759 39.759C167.916 38.7711 170.473 38.8343 171.084 38.8554C172.928 38.9217 174.645 38.9849 176.506 40.0602C178.437 41.1747 179.434 42.75 179.819 43.3735C180.539 44.5422 180.771 45.4458 181.325 47.5904C181.925 49.9006 182.578 52.1958 183.133 54.5181C183.133 54.5181 183.777 57.2259 184.94 61.747C185.623 64.4127 186.681 68.2229 188.253 72.8916C189.105 72.9307 190.358 73.009 191.867 73.1928C194.051 73.4578 194.699 73.6898 196.988 74.0964C201.816 74.9518 202.623 74.5693 204.819 75.6024C205.419 75.8855 206.777 76.5813 207.831 78.012C208.232 78.5572 208.693 79.1988 208.735 80.1205C208.762 80.7289 208.602 81.5 207.831 82.5301C206.855 83.8373 205.66 84.5452 201.506 86.4458C199.789 87.2319 198.545 87.7982 196.687 88.5542C195.096 89.2018 193.747 89.7078 192.771 90.0602C192.663 90.3825 192.563 90.8524 192.771 91.2651C193.087 91.8916 193.798 91.7651 194.277 92.4699C194.69 93.0753 194.599 93.8072 194.578 93.9759C194.506 94.5663 194.256 94.6807 193.976 95.4819C193.858 95.8223 193.795 96.2139 193.675 96.9879C193.536 97.8795 193.431 98.5602 193.373 99.3976C193.289 100.654 193.361 101.563 193.373 101.807C193.485 104.413 191.545 107.277 189.157 108.735C188.392 109.202 187.654 109.473 187.048 109.639V117.169C187.467 116.997 188.105 116.804 188.855 116.867C190.259 116.985 191.148 117.916 192.47 119.277C198.633 125.63 197.886 124.581 198.193 125C198.648 125.617 199.325 126.608 200.602 127.108C201.425 127.431 201.931 127.331 202.711 127.41C204.666 127.608 205.292 128.63 207.53 129.819C209.22 130.717 210.575 131.048 212.952 131.627C215.855 132.334 216.123 131.985 218.373 132.53C220.419 133.027 220.777 133.455 225.301 135.542C230.684 138.024 230.705 137.66 232.53 138.855C234.024 139.834 236.19 141.28 237.952 143.976C239.645 146.566 240.124 149.009 240.361 150.301C240.825 152.81 240.467 153.642 240.361 159.639C240.286 164.018 240.482 163.226 240.361 165.361C240.069 170.47 239.142 171.425 238.855 176.506C238.798 177.515 238.816 179.087 238.855 182.229C238.931 188.572 239.193 189.497 238.554 191.566C237.786 194.054 236.994 194.066 236.446 196.687C235.985 198.889 236.464 199.277 236.145 202.108C235.976 203.62 235.819 203.675 234.639 208.434C234.084 210.66 234.247 210.139 233.133 214.759C232.295 218.229 231.874 219.982 231.627 220.783C230.66 223.928 230.139 225.63 228.916 227.711C227.422 230.256 226.431 230.732 226.205 232.53C225.931 234.708 227.075 236.491 227.41 237.048C229.922 241.217 230 247.563 231.627 257.229C232.624 263.142 234.53 272.256 238.554 285.843L243.072 299.398L183.193 299.849C178.051 300.928 172.5 301.822 166.566 302.41C147.627 304.289 131.051 302.425 118.072 299.699L97.5392 299.849L98.494 292.771Z" fill="white"/>
			<path d="M237.651 165.964L238.253 150.904L237.651 148.795C237.651 148.795 236.145 146.084 234.94 145.181C233.735 144.277 230.422 141.566 229.819 140.964C229.217 140.361 221.988 137.349 221.988 137.349C221.988 137.349 218.072 135.843 217.169 135.241C216.265 134.639 214.157 134.94 214.157 134.94L212.048 135.843L210.843 134.94L209.337 133.735L206.627 132.831C206.627 132.831 205.422 132.831 204.819 132.229C204.217 131.626 202.711 130.723 202.711 130.723L199.699 130.422L198.795 130.12L195.482 126.807L192.771 123.795C192.771 123.795 191.868 122.892 191.265 122.289C190.663 121.687 190.06 119.879 190.06 119.879L188.855 119.277L188.253 121.687H187.651L186.747 121.084C186.747 121.084 186.145 118.373 185.843 118.976C185.542 119.578 184.036 120.482 184.036 120.482C184.036 120.482 183.434 119.879 183.434 118.976C183.434 118.072 183.434 114.157 183.434 114.157L183.735 107.229L184.639 105.12V106.325L185.843 106.626L187.349 106.024C187.349 106.024 187.952 105.723 188.554 104.518C189.157 103.313 189.458 101.205 189.458 101.205L190.361 96.0843L190.663 92.771L190.361 91.265L189.157 90.9638L187.651 91.265L188.253 90.0602L189.157 87.3494L192.169 86.7469L198.193 84.9397C198.193 84.9397 202.108 83.1325 203.313 82.5301C204.518 81.9277 204.819 81.0241 205.723 80.7228C206.024 80.1204 206.928 80.1204 206.024 79.2168C205.121 78.3132 204.518 78.012 204.518 78.012C204.518 78.012 203.614 77.4096 200.904 76.8072C198.193 76.2048 189.157 75.6024 189.157 75.6024L185.843 75.3012L185.241 73.7951L180.723 58.1325C180.723 58.1325 179.518 54.518 179.217 52.7108C178.916 50.9036 179.217 50 178.916 48.7951C178.614 47.5903 178.012 44.2771 177.108 43.3734C176.205 42.4698 176.205 42.4698 175 41.8674C173.795 41.265 171.687 41.265 170.783 41.265C169.88 41.265 165.663 42.4698 165.663 42.4698L160.542 44.5783C160.542 44.5783 155.422 46.3855 154.217 46.9879C153.012 47.5903 151.205 46.9879 151.205 46.9879L147.59 46.3855L143.675 45.4819C143.675 45.4819 141.265 45.1807 140.361 45.1807C139.458 45.1807 138.253 46.0843 137.651 46.3855C137.048 46.6867 136.145 49.3975 136.145 49.3975L135.542 54.8192L135.241 60.5421L134.337 69.5783L133.735 79.8192L126.807 81.3253L122.289 82.5301L117.169 84.0361L113.554 85.8433C113.554 85.8433 112.048 86.7469 112.048 88.253C112.048 89.1566 112.349 90.6626 114.759 91.8674C115.964 92.4698 121.386 93.3735 121.386 93.3735C121.386 93.3735 128.313 94.8795 129.217 94.8795C130.121 94.8795 131.325 94.5783 131.325 94.5783L132.229 99.0963L133.133 104.217C133.133 104.217 133.675 106.928 134.91 107.229C136.145 107.53 136.145 107.53 136.145 107.53L137.349 107.229L138.855 115.964C138.855 115.964 140.663 121.385 141.566 122.892C142.47 124.398 145.783 127.108 145.783 127.108L148.193 128.958V131.166L149.096 133.132L148.193 133.642L145.181 140.47V136.446L140.663 141.265L139.458 139.759L134.479 142.169L127.711 143.675L122.892 145.482C122.892 145.482 118.976 147.045 118.374 147.47C117.771 147.895 114.157 148.795 114.157 148.795L111.446 150.904L107.53 154.518L104.217 159.036L101.015 164.711L98.7952 170.687C98.7952 170.687 97.2892 174.398 97.2892 175.602C97.2892 176.807 98.7952 179.566 98.7952 179.566C98.7952 179.566 97.5904 179.819 96.0844 181.325C94.5783 182.831 93.6747 184.337 93.3735 186.145C93.0723 187.952 96.0844 190.663 96.0844 190.663C96.0844 190.663 94.5783 190.964 93.3735 191.566C92.1687 192.169 88.253 194.578 87.3494 196.385C86.4458 198.193 86.747 200.602 86.747 200.602C86.747 200.602 83.1326 201.807 82.8314 204.518C82.5301 207.229 84.3374 208.735 84.3374 208.735L82.5301 211.747C82.5301 211.747 79.5181 217.771 79.2169 219.578C78.9157 221.385 79.5181 231.024 80.7229 232.229C81.9277 233.434 89.4579 237.955 89.4579 237.955V231.024L91.5663 227.711L90.3615 232.53L91.5663 240.361L98.1928 245.482C98.1928 245.482 102.108 248.524 103.313 249.563C104.518 250.602 110.241 251.506 112.048 251.506C113.855 251.506 115.663 250.301 115.663 250.301L118.374 251.506C118.374 251.506 116.566 252.711 115.06 253.313C113.554 253.916 109.036 253.313 109.036 253.313L103.313 251.611L105.422 256.626C105.422 256.626 105.422 256.024 106.024 254.819C106.627 253.614 110.843 256.024 110.843 256.024L103.313 294.578L103.181 296.386H117.822L134.696 299.078L143.816 299.669H157.473L166.822 298.919L175.563 297.681L182.184 296.389L237.051 295.786L234.642 287.352L231.44 275.759L229.518 268.976L228.313 260.542L225.904 250L223.795 236.145L220.783 240.964C220.783 240.964 218.675 244.277 216.867 245.482C215.06 246.687 212.349 246.687 212.349 246.687L206.627 247.289C206.627 247.289 205.422 246.687 206.928 246.084C208.434 245.482 213.253 243.072 214.458 242.169C215.663 241.265 219.277 237.349 219.277 237.349L222.892 231.325L226.506 224.398L228.614 218.976L230.422 214.458L231.627 206.626L233.434 200.602L234.337 195.181C234.337 195.181 235.542 191.566 235.542 190.663C235.542 189.759 235.542 187.349 235.542 187.349L236.145 183.434L236.446 180.422C236.446 180.422 236.145 179.518 235.843 178.012C235.542 176.506 236.446 175 236.446 175L237.651 165.964Z" fill="#1A2D42"/>
			<path d="M186.747 121.084C187.298 121.105 187.964 121.223 188.253 121.687C188.928 122.768 187.087 124.976 185.241 127.41C183.322 129.94 181.753 132.723 179.819 135.241C179.819 135.241 176.633 139.395 171.386 146.687C168.904 150.139 165.56 155.154 162.048 161.747C156.557 153.539 155.316 150.054 155.422 148.494C155.443 148.199 155.578 146.952 154.819 146.084C154.235 145.416 153.343 145.235 152.711 145.181C152.03 145.617 151.066 146.283 150 147.202C144.976 151.515 143.286 156.545 142.771 156.325C142.458 156.193 143.069 154.334 144.277 149.699C145.542 144.846 145.53 144.352 146.386 141.566C147.699 137.289 147.943 135.521 148.494 135.542C148.877 135.557 149.072 136.404 149.398 137.349C150.449 140.416 152.97 144.831 155.723 145.181C156.343 145.259 156.732 145.099 159.337 143.675C162.31 142.048 163.798 141.235 166.265 139.759C171.828 136.434 171.916 136.711 174.398 134.94C176.777 133.241 178.461 131.726 179.217 131.024C181.108 129.268 182.602 127.596 183.735 126.205L186.747 121.084Z" fill="white"/>
			<path d="M145.783 154.819C146.47 155.807 146.503 156.482 146.386 156.928C146.217 157.575 145.756 157.663 145.482 158.434C145.181 159.283 145.545 159.735 145.482 160.542C145.401 161.59 144.684 162.181 143.675 163.253C142.449 164.554 141.479 166.075 140.361 167.47C140.361 167.47 139.244 168.861 137.349 171.386C136.738 172.199 134.41 175.386 131.627 181.928C127.81 190.901 125.5 200.639 124.699 204.217C123.946 207.584 123.669 209.34 123.193 209.337C121.949 209.325 121.048 197.298 120.482 187.048L124.096 178.615L130.12 166.265C131.431 164.22 132.738 162.111 134.036 159.94C137.301 154.479 140.196 149.136 142.771 143.976C142.75 144.807 142.684 146.069 142.47 147.59C142.187 149.602 141.831 150.759 141.265 153.012C140.099 157.642 139.518 159.958 140.06 160.241C140.358 160.395 141.084 160.057 143.072 157.53L145.783 154.819Z" fill="white"/>
			<path d="M128.615 214.759C128.563 214.645 129.982 214.238 131.024 212.952C131.768 212.033 131.94 211.139 132.229 209.94C132.648 208.211 133.265 206.536 133.735 204.819C134.533 201.901 134.834 201.846 136.747 196.386C137.69 193.693 137.678 193.53 138.554 190.964C139.187 189.108 140.672 184.786 142.771 179.819C144.886 174.819 146.322 172.244 147.289 168.976C148.051 166.401 148.434 165.111 148.494 164.458C148.587 163.473 148.551 162.678 149.096 161.747C149.621 160.855 150.413 160.289 150.904 159.94C151.898 159.232 152.099 159.413 153.012 158.735C153.548 158.337 153.97 157.867 154.819 156.928C156.139 155.467 156.289 155.084 156.627 155.12C157.322 155.196 157.44 156.91 158.133 158.735C158.611 159.994 159.524 161.729 161.446 163.554C160.699 164.994 159.895 166.401 159.036 167.771C157.494 170.232 156.946 170.699 155.422 173.193C154.054 175.434 154.163 175.599 153.012 177.41C151.473 179.831 150.919 180.096 149.398 182.229C148.006 184.181 148.045 184.551 144.88 190.361C142.599 194.545 142.825 193.898 141.868 195.783C141.157 197.184 140.331 198.916 137.952 204.819C137.087 206.964 135.949 209.831 134.639 213.253C134.211 213.304 133.581 213.395 132.831 213.554C130.392 214.072 128.675 214.889 128.615 214.759Z" fill="white"/>
			<path d="M156.627 212.349C156.566 212.304 158.289 209.798 164.458 201.205L163.855 208.434C163.587 208.205 163.184 207.931 162.651 207.831C159.81 207.304 156.711 212.413 156.627 212.349Z" fill="white"/>
			<path d="M170.181 202.41C170.205 204.09 170.286 206.099 170.482 208.133C170.524 208.575 170.596 209.226 171.084 209.639C171.783 210.229 172.994 210.045 173.795 209.639C174.816 209.121 175.108 208.268 175.904 206.928C176.452 206.003 177.307 204.726 178.615 203.313" fill="white"/>
			<path d="M169.88 198.795L181.325 200L181.627 201.807L179.819 202.108L169.88 200.964" fill="white"/>
			<path d="M112.651 211.446C113.316 211.446 113.855 210.906 113.855 210.241C113.855 209.576 113.316 209.036 112.651 209.036C111.985 209.036 111.446 209.576 111.446 210.241C111.446 210.906 111.985 211.446 112.651 211.446Z" fill="white"/>
			<path d="M108.133 211.446C108.632 211.446 109.036 211.041 109.036 210.542C109.036 210.043 108.632 209.639 108.133 209.639C107.634 209.639 107.229 210.043 107.229 210.542C107.229 211.041 107.634 211.446 108.133 211.446Z" fill="white"/>
			<path d="M89.4579 238.554C90.3555 239.994 91.9338 240.871 92.1687 240.663C92.3464 240.506 91.7169 239.756 91.2651 238.554C90.997 237.84 90.6988 236.726 90.9639 233.434C91.253 229.84 91.8765 227.816 91.5663 227.711C91.2711 227.611 90.4368 229.361 90.3615 229.518C89.5693 231.193 87.5392 235.479 89.4579 238.554Z" fill="white"/>
			<path d="M124.398 217.771C124.949 218.325 122.949 220.205 121.988 223.494C120.714 227.855 122.259 231.328 121.386 231.627C120.78 231.834 119.587 230.313 118.976 228.916C117.422 225.368 118.786 220.756 121.687 218.675C122.578 218.036 123.991 217.365 124.398 217.771Z" fill="white"/>
			<path d="M121.988 237.048C122.56 237.377 123.398 237.982 123.494 238.855C123.557 239.419 123.274 239.768 122.59 240.964C121.693 242.533 121.244 243.316 121.084 243.976C120.642 245.81 121.521 247.057 121.084 247.289C120.66 247.515 119.569 246.473 118.976 245.482C118.627 244.898 118.461 244.352 118.374 243.976" fill="white"/>
			<path d="M128.614 238.006L130.723 239.458L129.096 242.184L126.446 240.096" fill="white"/>
			<path d="M116.566 228.313C116.889 228.44 116.178 229.952 115.964 233.133C115.654 237.786 116.78 240.485 116.265 240.663C115.738 240.846 113.732 238.301 113.554 235.241C113.328 231.398 116.063 228.114 116.566 228.313Z" fill="white"/>
			<path d="M153.012 221.988C153.063 222.934 153.157 224.407 153.313 226.205C153.618 229.696 153.834 230.56 154.217 234.337C154.614 238.268 154.485 238.361 154.819 240.663C154.928 241.422 155.756 247.027 156.325 246.988C156.943 246.946 156.931 240.301 156.928 239.458C156.913 235.446 156.608 232.126 156.325 229.819" fill="white"/>
			<path d="M143.675 215.06L145.482 212.952V214.485L143.675 215.06Z" fill="white"/>
			<path d="M161.145 215.663L171.084 222.59C171.747 222.488 172.13 222.286 172.235 221.988C172.587 220.985 169.795 218.876 163.855 215.663" fill="white"/>
			<path d="M148.193 216.09L150 215.322L151.991 219.126L149.786 219.928" fill="white"/>
			<path d="M176.205 221.687L186.446 218.675C190.855 216.578 191.895 216.021 191.867 215.964C191.825 215.871 189.154 217.416 185.542 217.47C184.301 217.488 183.265 217.328 182.53 217.169" fill="white"/>
			<path d="M125.301 244.88L128.392 247.319L131.024 246.386" fill="white"/>
			<path d="M143.976 249.096H146.599V250.56H144.199" fill="white"/>
			<path d="M149.217 249.096H151.705V250.783L149.217 250.56" fill="white"/>
			<path d="M154.518 249.398H156.235V250.783H154.518" fill="white"/>
			<path d="M165.06 248.795C165.127 248.765 165.536 248.593 165.964 248.795C166.488 249.042 166.557 249.626 166.566 249.699C166.581 249.828 166.608 250.319 166.265 250.602C165.837 250.955 165.039 250.81 164.759 250.301C164.542 249.907 164.729 249.464 164.759 249.398" fill="white"/>
		</g>
	</g>
	<defs>
		<clipPath id="clip0_820_490">
			<rect width="300" height="304" fill="white"/>
		</clipPath>
		<clipPath id="clip1_820_490">
			<rect width="300" height="303.313" fill="white"/>
		</clipPath>
	</defs>
</svg>
