<svg width="22" height="22" viewBox="0 0 22 22" fill="none" xmlns="http://www.w3.org/2000/svg">
    <path d="M14.65 9.675C15.0333 9.675 15.3542 9.54583 15.6125 9.2875C15.8708 9.02917 16 8.70833 16 8.325C16 7.94167 15.8708 7.62083 15.6125 7.3625C15.3542 7.10417 15.0333 6.975 14.65 6.975C14.2667 6.975 13.9458 7.10417 13.6875 7.3625C13.4292 7.62083 13.3 7.94167 13.3 8.325C13.3 8.70833 13.4292 9.02917 13.6875 9.2875C13.9458 9.54583 14.2667 9.675 14.65 9.675ZM7.35 9.675C7.73333 9.675 8.05417 9.54583 8.3125 9.2875C8.57083 9.02917 8.7 8.70833 8.7 8.325C8.7 7.94167 8.57083 7.62083 8.3125 7.3625C8.05417 7.10417 7.73333 6.975 7.35 6.975C6.96667 6.975 6.64583 7.10417 6.3875 7.3625C6.12917 7.62083 6 7.94167 6 8.325C6 8.70833 6.12917 9.02917 6.3875 9.2875C6.64583 9.54583 6.96667 9.675 7.35 9.675ZM11 16.475C12.1 16.475 13.1125 16.1792 14.0375 15.5875C14.9625 14.9958 15.6333 14.1917 16.05 13.175H5.95C6.38333 14.1917 7.05833 14.9958 7.975 15.5875C8.89167 16.1792 9.9 16.475 11 16.475ZM11 21C9.63333 21 8.34167 20.7375 7.125 20.2125C5.90833 19.6875 4.84583 18.9708 3.9375 18.0625C3.02917 17.1542 2.3125 16.0917 1.7875 14.875C1.2625 13.6583 1 12.3583 1 10.975C1 9.60833 1.2625 8.31667 1.7875 7.1C2.3125 5.88333 3.02917 4.825 3.9375 3.925C4.84583 3.025 5.90833 2.3125 7.125 1.7875C8.34167 1.2625 9.64167 1 11.025 1C12.3917 1 13.6833 1.2625 14.9 1.7875C16.1167 2.3125 17.175 3.025 18.075 3.925C18.975 4.825 19.6875 5.88333 20.2125 7.1C20.7375 8.31667 21 9.61667 21 11C21 12.3667 20.7375 13.6583 20.2125 14.875C19.6875 16.0917 18.975 17.1542 18.075 18.0625C17.175 18.9708 16.1167 19.6875 14.9 20.2125C13.6833 20.7375 12.3833 21 11 21ZM11 19.5C13.3667 19.5 15.375 18.6708 17.025 17.0125C18.675 15.3542 19.5 13.35 19.5 11C19.5 8.63333 18.675 6.625 17.025 4.975C15.375 3.325 13.3667 2.5 11 2.5C8.65 2.5 6.64583 3.325 4.9875 4.975C3.32917 6.625 2.5 8.63333 2.5 11C2.5 13.35 3.32917 15.3542 4.9875 17.0125C6.64583 18.6708 8.65 19.5 11 19.5Z" fill="#1C2B40" fill-opacity="0.3"/>
    <path d="M16.2813 13.2698L16.4226 12.925H16.05H5.95H5.57168L5.72002 13.273C6.17266 14.335 6.88023 15.1784 7.83943 15.7975C8.79685 16.4155 9.85233 16.725 11 16.725C12.1477 16.725 13.2069 16.4155 14.1722 15.7981C15.1406 15.1787 15.8452 14.3341 16.2813 13.2698ZM14.65 9.925C15.096 9.925 15.4815 9.772 15.7893 9.46428C16.097 9.15655 16.25 8.771 16.25 8.325C16.25 7.879 16.097 7.49345 15.7893 7.18572C15.4815 6.878 15.096 6.725 14.65 6.725C14.204 6.725 13.8184 6.878 13.5107 7.18572C13.203 7.49345 13.05 7.879 13.05 8.325C13.05 8.771 13.203 9.15655 13.5107 9.46428C13.8184 9.772 14.204 9.925 14.65 9.925ZM7.35 9.925C7.796 9.925 8.18155 9.772 8.48928 9.46428C8.797 9.15655 8.95 8.771 8.95 8.325C8.95 7.879 8.797 7.49345 8.48928 7.18572C8.18155 6.878 7.796 6.725 7.35 6.725C6.904 6.725 6.51845 6.878 6.21072 7.18572C5.903 7.49345 5.75 7.879 5.75 8.325C5.75 8.771 5.903 9.15655 6.21072 9.46428C6.51845 9.772 6.904 9.925 7.35 9.925ZM7.02595 20.442C8.27488 20.981 9.60036 21.25 11 21.25C12.4159 21.25 13.7497 20.9811 14.999 20.442C16.244 19.9048 17.3293 19.1703 18.2526 18.2385C19.1754 17.3072 19.9051 16.2183 20.442 14.974C20.981 13.7251 21.25 12.3996 21.25 11C21.25 9.58413 20.9811 8.25027 20.442 7.00095C19.905 5.75649 19.175 4.67148 18.2518 3.74822C17.3285 2.82497 16.2435 2.09495 14.999 1.55796C13.7501 1.01904 12.4246 0.75 11.025 0.75C9.60913 0.75 8.27527 1.01887 7.02595 1.55796C5.78169 2.09487 4.69285 2.82465 3.76154 3.74741C2.82966 4.67074 2.09516 5.756 1.55796 7.00095C1.01904 8.24989 0.75 9.57536 0.75 10.975C0.75 12.3909 1.01887 13.7247 1.55796 14.974C2.09507 16.2188 2.82934 17.3079 3.76072 18.2393C4.69211 19.1707 5.78121 19.9049 7.02595 20.442ZM16.8478 16.8362C15.2453 18.4467 13.301 19.25 11 19.25C8.71615 19.25 6.77562 18.4471 5.16428 16.8357C3.55293 15.2244 2.75 13.2838 2.75 11C2.75 8.69898 3.55327 6.75469 5.16383 5.15222C6.77508 3.54907 8.71575 2.75 11 2.75C13.3014 2.75 15.2459 3.5494 16.8482 5.15178C18.4506 6.75415 19.25 8.69858 19.25 11C19.25 13.2843 18.4509 15.2249 16.8478 16.8362Z" stroke="#1C2B40" stroke-opacity="0.3" stroke-width="0.5"/>
</svg>
