<svg width="18" height="18" viewBox="0 0 18 18" fill="none" xmlns="http://www.w3.org/2000/svg">
    <path d="M9 8.5C7.9 8.5 7 8.15 6.3 7.45C5.6 6.75 5.25 5.85 5.25 4.75C5.25 3.65 5.6 2.75 6.3 2.05C7 1.35 7.9 1 9 1C10.1 1 11 1.35 11.7 2.05C12.4 2.75 12.75 3.65 12.75 4.75C12.75 5.85 12.4 6.75 11.7 7.45C11 8.15 10.1 8.5 9 8.5ZM1 16.525V14.175C1 13.5417 1.15833 13 1.475 12.55C1.79167 12.1 2.2 11.7583 2.7 11.525C3.81667 11.025 4.8875 10.65 5.9125 10.4C6.9375 10.15 7.96667 10.025 9 10.025C10.0333 10.025 11.0583 10.1542 12.075 10.4125C13.0917 10.6708 14.1583 11.0417 15.275 11.525C15.7917 11.7583 16.2083 12.1 16.525 12.55C16.8417 13 17 13.5417 17 14.175V16.525H1ZM2.5 15.025H15.5V14.175C15.5 13.9083 15.4208 13.6542 15.2625 13.4125C15.1042 13.1708 14.9083 12.9917 14.675 12.875C13.6083 12.3583 12.6333 12.0042 11.75 11.8125C10.8667 11.6208 9.95 11.525 9 11.525C8.05 11.525 7.125 11.6208 6.225 11.8125C5.325 12.0042 4.35 12.3583 3.3 12.875C3.06667 12.9917 2.875 13.1708 2.725 13.4125C2.575 13.6542 2.5 13.9083 2.5 14.175V15.025ZM9 7C9.65 7 10.1875 6.7875 10.6125 6.3625C11.0375 5.9375 11.25 5.4 11.25 4.75C11.25 4.1 11.0375 3.5625 10.6125 3.1375C10.1875 2.7125 9.65 2.5 9 2.5C8.35 2.5 7.8125 2.7125 7.3875 3.1375C6.9625 3.5625 6.75 4.1 6.75 4.75C6.75 5.4 6.9625 5.9375 7.3875 6.3625C7.8125 6.7875 8.35 7 9 7Z" fill="#1C2B40" fill-opacity="0.3"/>
    <path d="M0.75 16.525V16.775H1H17H17.25V16.525V14.175C17.25 13.4982 17.0801 12.9044 16.7295 12.4061C16.3862 11.9184 15.934 11.5483 15.3779 11.2972L15.3779 11.2971L15.3743 11.2956C14.2473 10.8078 13.168 10.4323 12.1366 10.1702C11.1001 9.90683 10.0544 9.775 9 9.775C7.94629 9.775 6.89724 9.90249 5.85326 10.1571C4.81143 10.4112 3.7262 10.7916 2.59783 11.2968L2.59782 11.2968L2.59428 11.2985C2.05483 11.5502 1.61241 11.9203 1.27055 12.4061C0.919927 12.9044 0.75 13.4982 0.75 14.175V16.525ZM6.12322 7.62678C6.87552 8.37908 7.84177 8.75 9 8.75C10.1582 8.75 11.1245 8.37908 11.8768 7.62678C12.6291 6.87448 13 5.90823 13 4.75C13 3.59177 12.6291 2.62552 11.8768 1.87322C11.1245 1.12092 10.1582 0.75 9 0.75C7.84177 0.75 6.87552 1.12092 6.12322 1.87322C5.37092 2.62552 5 3.59177 5 4.75C5 5.90823 5.37092 6.87448 6.12322 7.62678ZM15.25 14.175V14.775H2.75V14.175C2.75 13.9581 2.81027 13.7492 2.93741 13.5443C3.06514 13.3386 3.22318 13.1931 3.41113 13.0989C4.44707 12.5893 5.40207 12.2434 6.27707 12.057C7.15941 11.8691 8.06694 11.775 9 11.775C9.93308 11.775 10.8319 11.8691 11.697 12.0568C12.5557 12.2431 13.5111 12.5891 14.5645 13.0993C14.7536 13.1941 14.9169 13.3412 15.0534 13.5495C15.1874 13.754 15.25 13.9611 15.25 14.175ZM10.4357 6.18572C10.0617 6.55978 9.58966 6.75 9 6.75C8.41034 6.75 7.93834 6.55978 7.56428 6.18572C7.19021 5.81166 7 5.33966 7 4.75C7 4.16034 7.19021 3.68834 7.56428 3.31428C7.93834 2.94022 8.41034 2.75 9 2.75C9.58966 2.75 10.0617 2.94022 10.4357 3.31428C10.8098 3.68834 11 4.16034 11 4.75C11 5.33966 10.8098 5.81166 10.4357 6.18572Z" stroke="#1C2B40" stroke-opacity="0.3" stroke-width="0.5"/>
</svg>
